<?xml version="1.0" encoding="utf-8"?><svg viewBox="0 0 200 50" xmlns="http://www.w3.org/2000/svg" xmlns:xlink="http://www.w3.org/1999/xlink"><style>:root>svg{display:none}:root>svg:target{display:block}</style><svg fill="none" viewBox="0 0 50 50" id="career" xmlns="http://www.w3.org/2000/svg"><g clip-path="url(#aclip0)"><path d="M47.899 37.381c-.469-.934-1.09-1.09-2.025-1.402-4.05-1.557-7.633-2.335-11.683-3.739-.31-.156-1.403-.778-1.403-2.803 0-.778-.156-1.245-1.09-1.245-.31 0-.156 0-.31-.623-.312-1.87-.157-2.805-.157-3.116 0-.311.31-.468.468-.623 1.402-1.869 1.714-4.204 1.714-5.451 0 0 .31.156.467-.623.31-.78.31-1.09.623-2.025.312-.778.312-2.336-.623-2.336-.623.156-.467 0-.467-.623V7.477c-.157-1.87-1.247-2.96-2.182-3.583-1.246-.779-1.714-1.09-2.335-1.558-.623-.467-.468-.934 0-1.557.31-.311.778-.623.935-.779h-.312c-.31 0-3.27.468-4.36.779-2.336.623-4.517 1.246-6.387 2.804-1.246.934-2.336 2.336-2.336 3.894v5.296c0 .467 0 .778-.623.623-1.09-.157-.467 2.025-.467 2.181.155.778.467 1.403.778 2.336.156.623.468.623.468.623.31 1.402.778 3.895 2.024 5.451.157.157.311.469.311.78-.156.935-.156 2.18-.311 3.114 0 .157-.156.623-.467.623-.78 0-1.09.623-.936 1.247 0 1.402-.934 2.492-1.401 2.802-2.025.935-9.035 2.96-11.372 3.738-1.557.468-2.025.936-2.336 1.557L.08 42.99c8.88 0 13.396 5.452 22.585 7.01h.157l-2.492-4.361 4.827-13.396-1.557-3.272h3.115l-1.558 3.272 4.828 13.396-2.96 4.05h.312c9.5-1.558 16.043-7.01 22.585-7.01l-2.022-5.298zm-5.763 2.649H34.97v-1.247h7.166v1.247z" fill="#1E90FF"/></g><defs><clipPath id="aclip0"><path fill="#fff" d="M0 0h50v49.999H0z"/></clipPath></defs></svg><svg fill="none" viewBox="0 0 50 50" id="chat" xmlns="http://www.w3.org/2000/svg"><g clip-path="url(#bclip0)" fill="#1E90FF"><path d="M32.539 11.234a17.101 17.101 0 00-15.35-9.574C7.71 1.66 0 9.326 0 18.75c0 2.56.55 5.015 1.635 7.303L.029 34.087a1.466 1.466 0 001.72 1.724l8.133-1.608a16.84 16.84 0 003.392 1.186c-2.609-12.357 6.758-23.956 19.265-24.155z"/><path d="M48.365 38.553c.28-.592.525-1.195.733-1.808h-.053C52.702 26.01 45.01 14.73 33.658 14.18v-.001c-9.77-.45-17.886 7.371-17.886 17.07 0 9.415 7.652 17.075 17.065 17.09 2.552-.004 5-.554 7.281-1.636 8.907 1.76 8.212 1.635 8.417 1.635.926 0 1.617-.848 1.437-1.752l-1.607-8.033z"/></g><defs><clipPath id="bclip0"><path fill="#fff" d="M0 0h50v50H0z"/></clipPath></defs></svg><svg fill="none" viewBox="0 0 50 50" id="clock" xmlns="http://www.w3.org/2000/svg"><path d="M22.917 4.167a20.834 20.834 0 100 41.667 20.834 20.834 0 000-41.668zm0 37.5a16.667 16.667 0 110-33.335 16.667 16.667 0 010 33.334zm0-29.167a2.083 2.083 0 00-2.083 2.083v9.208l-4.375 2.521a2.084 2.084 0 001.041 3.896c.365.003.724-.09 1.042-.27l5.417-3.126.187-.187.334-.271c.081-.103.15-.215.208-.333.068-.112.124-.23.167-.355.056-.132.091-.273.104-.416L25 25V14.583a2.083 2.083 0 00-2.083-2.083z" fill="#fff"/></svg><svg fill="none" viewBox="0 0 50 50" id="conversation" xmlns="http://www.w3.org/2000/svg"><g clip-path="url(#dclip0)" fill="#1E90FF"><path d="M6.152 20.998H20.41a2.933 2.933 0 002.93-2.93v-3.222c.133-.11-.166.218 3.717-4.195 1.8-1.614.97-4.621-1.436-5.059-.182-.033 1.199-.024-19.469-.024a2.933 2.933 0 00-2.93 2.93v9.57a2.933 2.933 0 002.93 2.93zM47.072 29.005c-23.452 0-22.35-.039-22.691.023-2.403.437-3.24 3.442-1.437 5.06 3.876 4.404 3.585 4.086 3.718 4.194v3.223a2.933 2.933 0 002.93 2.93h17.48a2.933 2.933 0 002.93-2.93v-9.57a2.933 2.933 0 00-2.93-2.93zm-10.32 8.932a1.466 1.466 0 01-1.627-2.435 1.464 1.464 0 111.627 2.435zm6.655-.404c-.706 1.075-2.387.762-2.655-.527a1.465 1.465 0 011.15-1.723c1.311-.245 2.21 1.18 1.505 2.25zM45.717 15.849c-3.934 4.512-10.902 4.517-14.846.028-2.57 1.99-4.21 4.99-4.21 8.342 0 .809.655 1.465 1.464 1.465h20.41c.81 0 1.465-.656 1.465-1.465 0-3.368-1.67-6.38-4.283-8.37zM19.112 37.74c-3.94 4.462-10.878 4.46-14.812-.029C1.677 39.702 0 42.72 0 46.096c0 .809.656 1.465 1.465 1.465h20.41c.809 0 1.465-.656 1.465-1.465 0-3.36-1.648-6.365-4.228-8.355z"/><path d="M11.719 38.153c3.829 0 6.933-3.097 6.933-6.918 0-3.82-3.104-6.917-6.933-6.917-3.83 0-6.933 3.097-6.933 6.917s3.104 6.918 6.933 6.918zM38.28 16.31a6.934 6.934 0 100-13.868 6.934 6.934 0 000 13.868z"/></g><defs><clipPath id="dclip0"><path fill="#fff" d="M0 0h50v50H0z"/></clipPath></defs></svg><svg fill="none" viewBox="0 0 50 50" id="dollar" xmlns="http://www.w3.org/2000/svg"><g clip-path="url(#eclip0)" fill="#1E90FF"><path d="M5.649 32.487a19.816 19.816 0 01-.849-5.79c0-8.617 5.792-15.962 13.843-18.364v2.402l10.595-5.367L18.643 0v3.814C8.333 6.497.564 15.679.564 26.696c0 1.553.142 3.108.424 4.52l.424-2.26 4.238 3.531zM40.254 30.086l-.706 11.865 9.888-6.497-3.248-1.98c.706-2.116.988-4.376.988-6.78 0-10.168-6.638-18.785-15.678-22.034l1.695 1.271-5.084 2.12c8.473 1.977 14.83 9.604 14.83 18.643 0 1.555-.282 3.108-.565 4.52l-2.12-1.128zM37.994 39.55c-3.532 3.814-8.474 6.215-14.124 6.215-5.084 0-9.746-2.12-13.136-5.367l2.118-1.131-9.886-6.498.705 11.865 3.249-1.978A23.246 23.246 0 0023.87 50c5.792 0 11.019-2.117 15.114-5.65l-1.695.566.705-5.367z"/><path d="M22.316 13.419v3.107c-3.531.707-5.508 2.967-5.508 5.792 0 3.108 2.401 4.803 5.791 5.932 2.402.85 3.39 1.555 3.39 2.825 0 1.27-1.272 1.978-3.107 1.978-2.119 0-3.955-.707-5.368-1.412l-.988 3.815c1.27.705 3.39 1.27 5.508 1.41v3.11h3.248v-3.391c3.672-.706 5.792-3.108 5.792-5.933 0-2.965-1.554-4.662-5.368-6.073-2.824-.988-3.954-1.695-3.954-2.824 0-.848.706-1.836 2.824-1.836 2.402 0 3.814.707 4.662 1.13l.988-3.672c-1.13-.565-2.542-.989-4.662-1.13v-2.825l-3.248-.003z"/></g><defs><clipPath id="eclip0"><path fill="#fff" d="M0 0h50v50H0z"/></clipPath></defs></svg><svg fill="none" viewBox="0 0 24 24" id="facebook" xmlns="http://www.w3.org/2000/svg"><path d="M12.683 22v-7.745h-2.607v-3.019h2.607V9.01a3.637 3.637 0 013.882-3.99c.778-.002 1.555.038 2.329.12v2.7h-1.598c-1.254 0-1.496.595-1.496 1.47v1.926h2.989l-.39 3.019h-2.6V22h-3.116z" fill="#333"/><path d="M20.999 2H2.998a1 1 0 00-1 1v18.001a1 1 0 001 1h18.001a1 1 0 001-1V3a1 1 0 00-1-1zm-2.105 5.84h-1.598c-1.254 0-1.496.596-1.496 1.47v1.926h2.989l-.39 3.019h-2.6V22h-3.117v-7.745h-2.606v-3.019h2.606V9.01a3.637 3.637 0 013.883-3.99 21.37 21.37 0 012.329.12v2.7z" fill="#fff"/></svg><svg fill="none" viewBox="0 0 24 24" id="instagram" xmlns="http://www.w3.org/2000/svg"><path d="M20.936 7.564a6.061 6.061 0 00-.377-2.039 3.401 3.401 0 00-.822-1.263 3.398 3.398 0 00-1.262-.82 6.094 6.094 0 00-2.039-.378C15.278 3.012 14.931 3 12 3c-2.93 0-3.279.01-4.436.064a6.06 6.06 0 00-2.039.377 3.39 3.39 0 00-1.263.821 3.425 3.425 0 00-.82 1.264 6.096 6.096 0 00-.378 2.038C3.012 8.723 3 9.07 3 12.001c0 2.931.01 3.279.064 4.436.008.696.136 1.386.378 2.039.175.477.456.908.821 1.261.354.365.786.645 1.263.822.652.242 1.342.37 2.038.377C8.721 20.99 9.07 21 12 21s3.28-.01 4.436-.064a6.059 6.059 0 002.039-.377 3.635 3.635 0 002.084-2.084 6.09 6.09 0 00.377-2.038C20.99 15.278 21 14.93 21 12s-.01-3.278-.064-4.436z" fill="#333"/><path d="M17.793 7.618a2.458 2.458 0 00-1.41-1.41 4.132 4.132 0 00-1.38-.256c-.784-.036-1.02-.044-3.003-.044S9.782 5.916 9 5.952a4.1 4.1 0 00-1.38.255c-.649.25-1.16.762-1.41 1.41-.164.443-.25.91-.256 1.38-.036.784-.043 1.019-.043 3.003 0 1.984.007 2.22.043 3.003.005.47.092.938.255 1.38a2.46 2.46 0 001.41 1.41c.443.163.91.25 1.38.255.783.036 1.018.043 3.002.043 1.985 0 2.22-.007 3.003-.043a4.105 4.105 0 001.38-.255 2.46 2.46 0 001.41-1.41c.164-.442.25-.909.256-1.38.036-.784.043-1.019.043-3.003 0-1.984-.007-2.219-.043-3.002a4.105 4.105 0 00-.256-1.38zM12 15.815a3.815 3.815 0 110-7.63 3.815 3.815 0 010 7.63zm3.966-6.89a.892.892 0 010-1.783h.001a.892.892 0 01.005 1.783h-.006z" fill="#fff"/><path d="M12 9.523A2.477 2.477 0 1014.477 12a2.477 2.477 0 00-2.476-2.477z" fill="#fff"/><path d="M21.93 7.07a6.735 6.735 0 00-.42-2.264 3.777 3.777 0 00-.913-1.403 3.775 3.775 0 00-1.403-.913 6.771 6.771 0 00-2.265-.42C15.642 2.014 15.257 2 12 2c-3.255 0-3.642.012-4.928.07-.774.01-1.54.151-2.265.42-.53.195-1.01.507-1.403.913a3.806 3.806 0 00-.913 1.403 6.773 6.773 0 00-.42 2.265C2.014 8.358 2 8.744 2 12.001c0 3.257.012 3.643.071 4.929.01.773.151 1.54.42 2.265.195.53.507 1.01.912 1.402a3.79 3.79 0 001.403.913 6.733 6.733 0 002.266.42c1.285.059 1.672.07 4.928.07 3.257 0 3.643-.012 4.93-.07a6.733 6.733 0 002.264-.42 4.04 4.04 0 002.316-2.315c.268-.726.41-1.492.42-2.265.058-1.287.07-1.673.07-4.93 0-3.257-.012-3.642-.07-4.93zm-2.545 7.993a5.435 5.435 0 01-.345 1.804 3.8 3.8 0 01-2.173 2.173 5.45 5.45 0 01-1.803.345c-.793.037-1.046.045-3.064.045-2.017 0-2.27-.009-3.063-.045a5.455 5.455 0 01-1.803-.345 3.799 3.799 0 01-2.174-2.173 5.45 5.45 0 01-.345-1.804C4.58 14.271 4.57 14.018 4.57 12c0-2.018.009-2.271.045-3.063a5.45 5.45 0 01.345-1.804A3.798 3.798 0 017.134 4.96a5.45 5.45 0 011.803-.345c.793-.037 1.047-.045 3.064-.045 2.018 0 2.27.009 3.063.045a5.443 5.443 0 011.804.345 3.8 3.8 0 012.172 2.173 5.45 5.45 0 01.345 1.804c.036.792.045 1.045.045 3.063 0 2.018-.009 2.27-.045 3.063z" fill="#fff"/></svg><svg fill="none" viewBox="0 0 24 24" id="linkedin" xmlns="http://www.w3.org/2000/svg"><path d="M8.088 9.71H5.086v9.032h3.002V9.71zM6.587 8.478h-.02a1.565 1.565 0 11.04-3.12 1.565 1.565 0 11-.02 3.12zm12.325 10.264H15.91V13.91c0-1.214-.434-2.042-1.52-2.042a1.643 1.643 0 00-1.54 1.098c-.078.236-.111.484-.1.732v5.043H9.75c0-.003.04-8.184 0-9.031h3.002v1.28a2.978 2.978 0 012.705-1.492c1.975 0 3.456 1.29 3.456 4.065v5.178z" fill="#333"/><path d="M20.468 2H3.532a1.452 1.452 0 00-1.47 1.433v17.135c.011.8.669 1.442 1.47 1.432h16.936a1.451 1.451 0 001.47-1.432V3.433A1.451 1.451 0 0020.467 2zM8.088 18.742H5.086v-9.03h3.002v9.03zM6.833 8.48a1.57 1.57 0 01-.246-.002h-.02a1.565 1.565 0 11.04-3.12 1.565 1.565 0 01.226 3.122zm12.079 10.262H15.91v-4.83c0-1.215-.434-2.043-1.52-2.043a1.643 1.643 0 00-1.54 1.098 2.06 2.06 0 00-.1.732v5.043H9.75c0-.003.04-8.184 0-9.03h3.002v1.28a2.978 2.978 0 012.705-1.493c1.975 0 3.456 1.291 3.456 4.065v5.178z" fill="#fff"/></svg><svg fill="none" viewBox="0 0 50 50" id="location" xmlns="http://www.w3.org/2000/svg"><path d="M25 4.167A16.667 16.667 0 008.333 20.833c0 11.25 14.688 23.959 15.313 24.5a2.083 2.083 0 002.708 0c.73-.541 15.313-13.25 15.313-24.5A16.667 16.667 0 0025 4.167zm0 36.77c-4.438-4.166-12.5-13.145-12.5-20.104a12.5 12.5 0 0125 0c0 6.959-8.063 15.959-12.5 20.105zM25 12.5a8.333 8.333 0 100 16.667A8.333 8.333 0 0025 12.5zM25 25a4.167 4.167 0 110-8.334A4.167 4.167 0 0125 25z" fill="#fff"/></svg><svg fill="none" viewBox="0 0 200 38" id="logo" xmlns="http://www.w3.org/2000/svg"><path d="M1.519 26.095c.464 0 1.31.042 1.933.523.266.2.755.714.755 1.718 0 .415-.091 1.137-.83 1.635 1.17.29 1.602 1.295 1.602 2.092a2.3 2.3 0 01-.855 1.792c-.672.523-1.435.548-2.016.548H0v-8.308h1.519zm-.581 3.652h.705c.49 0 1.651-.1 1.651-1.386 0-1.37-1.36-1.395-1.626-1.395h-.73v2.781zm0 3.785h1.07c.54 0 1.07-.042 1.477-.349.332-.24.556-.647.556-1.145 0-.664-.39-1.046-.722-1.22-.315-.175-.755-.25-1.427-.25H.938v2.964zM7.369 32.254c0 .365 0 .788.249 1.112.141.174.415.398.921.398s.78-.224.921-.398c.25-.324.25-.747.25-1.112V29.24h.912v3.112c0 .64-.066 1.112-.481 1.56-.465.49-1.087.648-1.602.648-.514 0-1.137-.166-1.602-.647-.414-.449-.48-.922-.48-1.56V29.24h.912v3.013zM12.796 26.643c.357 0 .648.29.648.639 0 .349-.291.639-.648.639a.647.647 0 01-.647-.64.658.658 0 01.647-.638zm.457 2.59v5.17h-.913v-5.17h.913zM15.875 25.323v9.08h-.913v-9.08h.913zM21.61 25.323h.904v9.08h-.905v-.722c-.299.39-.871.872-1.792.872-1.328 0-2.548-.921-2.548-2.74 0-1.784 1.212-2.705 2.548-2.705 1.012 0 1.552.548 1.792.863v-4.648zm-3.412 6.49c0 1.113.631 1.943 1.718 1.943 1.112 0 1.743-.913 1.743-1.934 0-1.336-.938-1.917-1.743-1.917-.896.008-1.718.656-1.718 1.909zM24.563 26.643c.357 0 .648.29.648.639 0 .349-.29.639-.648.639a.647.647 0 01-.647-.64c0-.348.29-.638.647-.638zm.457 2.59v5.17h-.913v-5.17h.913zM26.737 29.233h.913v.597c.166-.215.63-.722 1.502-.722.623 0 1.187.25 1.502.714.266.39.299.813.299 1.386v3.204h-.913v-3.179c0-.315-.025-.672-.24-.946-.175-.224-.457-.374-.855-.374-.316 0-.656.092-.921.399-.357.415-.382 1.02-.382 1.394v2.706h-.913v-5.18h.008zM36.679 29.233h.904v5.046c0 .564 0 1.361-.506 2.034-.39.523-1.112.962-2.09.962-.897 0-1.52-.348-1.868-.697a2.34 2.34 0 01-.68-1.668h.896c0 .44.174.822.406 1.07.382.416.855.499 1.262.499.647 0 1.087-.224 1.386-.722.265-.424.29-.889.29-1.32v-.747c-.299.39-.871.871-1.793.871-.771 0-1.385-.298-1.792-.697-.357-.348-.755-.996-.755-2.042 0-1.012.382-1.635.755-2.008a2.601 2.601 0 011.792-.698c.772 0 1.378.324 1.793.864v-.747zm-2.88 1.162c-.44.448-.53.996-.53 1.419 0 .448.09 1.062.597 1.519.29.266.647.423 1.12.423.473 0 .855-.15 1.145-.44.357-.34.59-.888.59-1.494 0-.614-.225-1.145-.557-1.46-.29-.291-.721-.465-1.186-.465a1.712 1.712 0 00-1.179.498zM46.239 27.739a2.014 2.014 0 00-.49-.623c-.166-.124-.465-.29-.946-.29-.83 0-1.41.514-1.41 1.286 0 .324.09.515.315.722.249.25.564.39.88.523l.804.349c.49.216.946.44 1.303.788.432.424.606.913.606 1.51 0 1.536-1.145 2.557-2.664 2.557-.556 0-1.253-.108-1.834-.672-.415-.399-.672-.971-.78-1.47l.913-.248c.066.44.266.813.506 1.062.365.365.78.465 1.212.465 1.145 0 1.693-.813 1.693-1.643 0-.374-.117-.698-.415-.971-.24-.225-.565-.374-1.013-.573l-.755-.349c-.332-.15-.747-.323-1.12-.689-.365-.348-.581-.738-.581-1.36 0-1.287.996-2.142 2.357-2.142.514 0 .938.1 1.352.373.34.224.631.565.822.921l-.755.474zM49.69 25.323v5.827l1.918-1.917h1.187l-2.25 2.216 2.648 2.954h-1.187l-2.091-2.357-.224.224v2.133h-.913v-9.08h.913zM54.562 26.643c.357 0 .647.29.647.639 0 .349-.29.639-.647.639a.646.646 0 01-.647-.64.658.658 0 01.647-.638zm.457 2.59v5.17h-.913v-5.17h.913zM57.65 25.323v9.08h-.914v-9.08h.913zM60.271 25.323v9.08h-.913v-9.08h.913zM64.147 30.436c-.125-.299-.39-.523-.73-.523-.333 0-.631.191-.631.59 0 .373.249.49.846.738.755.316 1.112.548 1.311.797.224.274.274.548.274.838 0 1.088-.796 1.694-1.8 1.694-.216 0-1.386-.025-1.834-1.32l.78-.324c.1.274.406.847 1.062.847.589 0 .855-.44.855-.822 0-.49-.357-.647-.847-.863-.63-.274-1.037-.473-1.278-.764-.2-.249-.24-.498-.24-.763 0-.913.647-1.445 1.526-1.445.274 0 1.021.05 1.436.938l-.73.382zM67.01 33.283c.34 0 .63.29.63.623a.64.64 0 01-.63.622.64.64 0 01-.631-.622.64.64 0 01.63-.623zM73.989 26.095c.464 0 1.31.042 1.933.523.266.2.755.714.755 1.718 0 .415-.091 1.137-.83 1.635 1.17.29 1.602 1.295 1.602 2.092a2.3 2.3 0 01-.855 1.792c-.672.523-1.435.548-2.016.548h-2.091v-8.308h1.502zm-.581 3.652h.705c.49 0 1.651-.1 1.651-1.386 0-1.37-1.36-1.395-1.626-1.395h-.73v2.781zm0 3.785h1.07c.54 0 1.07-.042 1.477-.349.332-.24.556-.647.556-1.145 0-.664-.39-1.046-.722-1.22-.315-.175-.755-.25-1.427-.25h-.963v2.964h.009zM79.847 32.254c0 .365 0 .788.25 1.112.14.174.414.398.92.398.507 0 .78-.224.922-.398.249-.324.249-.747.249-1.112V29.24h.912v3.112c0 .64-.066 1.112-.481 1.56-.465.49-1.087.648-1.602.648-.514 0-1.136-.166-1.601-.647-.415-.449-.481-.922-.481-1.56V29.24h.912v3.013zM85.275 26.643c.356 0 .647.29.647.639 0 .349-.29.639-.647.639a.646.646 0 01-.648-.64.658.658 0 01.648-.638zm.456 2.59v5.17h-.913v-5.17h.913zM88.353 25.323v9.08h-.913v-9.08h.913zM94.087 25.323h.905v9.08h-.905v-.722c-.298.39-.87.872-1.792.872-1.328 0-2.548-.921-2.548-2.74 0-1.784 1.212-2.705 2.548-2.705 1.012 0 1.552.548 1.792.863v-4.648zm-3.41 6.49c0 1.113.63 1.943 1.717 1.943 1.112 0 1.743-.913 1.743-1.934 0-1.336-.938-1.917-1.743-1.917-.896.008-1.717.656-1.717 1.909zM97.042 26.643c.356 0 .647.29.647.639a.647.647 0 01-1.295 0c0-.349.29-.64.648-.64zm.456 2.59v5.17h-.913v-5.17h.913zM99.207 29.233h.913v.597a1.847 1.847 0 011.502-.722c.623 0 1.187.25 1.502.714.266.39.299.813.299 1.386v3.204h-.913v-3.179c0-.315-.025-.672-.24-.946-.175-.224-.457-.374-.855-.374-.315 0-.656.092-.921.399-.357.415-.382 1.02-.382 1.394v2.706h-.913v-5.18h.008zM109.157 29.233h.905v5.046c0 .564 0 1.361-.506 2.034-.39.523-1.112.962-2.092.962-.896 0-1.518-.348-1.867-.697a2.341 2.341 0 01-.68-1.668h.896c0 .44.174.822.407 1.07.381.416.854.499 1.261.499.647 0 1.087-.224 1.386-.722.265-.424.29-.889.29-1.32v-.747a2.2 2.2 0 01-1.792.871c-.772 0-1.386-.298-1.793-.697-.356-.348-.755-.996-.755-2.042 0-1.012.382-1.635.755-2.008a2.604 2.604 0 011.793-.698c.772 0 1.377.324 1.792.864v-.747zm-2.879 1.162c-.44.448-.531.996-.531 1.419 0 .448.091 1.062.597 1.519.291.266.647.423 1.12.423.473 0 .855-.15 1.146-.44.356-.34.589-.888.589-1.494 0-.614-.224-1.145-.556-1.46-.291-.291-.722-.465-1.187-.465a1.71 1.71 0 00-1.178.498zM121.389 27.93a4.134 4.134 0 00-1.095-.773c-.44-.199-.963-.323-1.452-.323-1.942 0-3.386 1.544-3.386 3.46 0 2.258 1.859 3.387 3.394 3.387.564 0 1.12-.166 1.568-.39.482-.24.822-.548.971-.697v1.145a4.418 4.418 0 01-2.539.814c-2.498 0-4.357-1.868-4.357-4.275 0-2.481 1.884-4.324 4.407-4.324.506 0 1.477.058 2.489.822v1.153zM126.891 29.233h.905v5.17h-.905v-.721c-.299.39-.871.871-1.792.871-1.328 0-2.548-.921-2.548-2.739 0-1.785 1.212-2.706 2.548-2.706 1.012 0 1.551.548 1.792.863v-.738zm-3.411 2.581c0 1.112.631 1.942 1.718 1.942 1.112 0 1.743-.913 1.743-1.934 0-1.336-.938-1.917-1.743-1.917-.896.008-1.718.656-1.718 1.909zM129.513 29.233h.913v.564c.091-.133.481-.689 1.187-.689.274 0 .581.1.805.216l-.432.813a.904.904 0 00-.531-.174c-.365 0-.589.15-.73.324-.15.199-.299.548-.299 1.394v2.73h-.913v-5.178zM137.596 33.084c-.149.29-.382.597-.647.838-.482.424-1.071.64-1.743.64-1.261 0-2.589-.79-2.589-2.706 0-1.544.962-2.74 2.539-2.74 1.021 0 1.668.498 1.984.947.331.465.514 1.261.489 1.942h-4.074c.016 1.07.755 1.76 1.668 1.76.431 0 .771-.125 1.07-.374.241-.2.432-.465.539-.714l.764.407zm-.896-1.826c-.15-.813-.772-1.345-1.544-1.345s-1.402.573-1.543 1.345h3.087zM143.67 33.084a3.06 3.06 0 01-.647.838c-.481.424-1.07.64-1.743.64-1.261 0-2.589-.79-2.589-2.706 0-1.544.963-2.74 2.54-2.74 1.02 0 1.668.498 1.983.947.332.465.514 1.261.49 1.942h-4.075c.017 1.07.755 1.76 1.668 1.76.432 0 .772-.125 1.071-.374.24-.2.431-.465.539-.714l.763.407zm-.896-1.826c-.149-.813-.772-1.345-1.543-1.345-.772 0-1.403.573-1.544 1.345h3.087zM145.089 29.233h.913v.564c.092-.133.482-.689 1.187-.689.274 0 .581.1.805.216l-.432.813a.904.904 0 00-.531-.174c-.365 0-.589.15-.73.324-.149.199-.299.548-.299 1.394v2.73h-.913v-5.178zM150.849 30.436c-.125-.299-.391-.523-.731-.523-.332 0-.63.191-.63.59 0 .373.249.49.846.738.755.316 1.112.548 1.311.797.224.274.274.548.274.838 0 1.088-.797 1.694-1.801 1.694-.216 0-1.386-.025-1.834-1.32l.78-.324c.1.274.407.847 1.063.847.589 0 .854-.44.854-.822 0-.49-.357-.647-.846-.863-.631-.274-1.037-.473-1.278-.764-.199-.249-.241-.498-.241-.763 0-.913.648-1.445 1.527-1.445.274 0 1.021.05 1.436.938l-.73.382zM153.711 33.283a.64.64 0 01.631.623.64.64 0 01-.631.622.64.64 0 01-.63-.622.64.64 0 01.63-.623zM11.236 4.308H4.813v3.834h5.942v3.86H4.813v8.258H.241V.448h10.995v3.86zM19.17.448v15.953h6.148v3.86h-10.73V.447h4.581zM44.654 12.184c0 1.901-.24 4.25-2.2 6.267-1.9 1.959-4.099 2.258-6.182 2.258-2.082 0-4.282-.3-6.182-2.258-1.958-2.017-2.199-4.366-2.199-6.267V.448h4.572v11.62c0 .864.059 2.316 1.038 3.329.805.863 1.9 1.037 2.763 1.037s1.958-.174 2.764-1.037c.979-1.013 1.037-2.466 1.037-3.329V.448h4.572v11.736h.017zM60.197 4.308h-6.622v3.834h6.298v3.86h-6.298V16.4h6.622v3.86H48.994V.447h11.203v3.86zM63.906 20.269V.449h3.983l10.755 12.773V.448h4.572v19.82h-3.983L68.478 7.429v12.84h-4.572zM94.502 4.308V20.26H89.93V4.308h-4.307V.448h13.194v3.86h-4.315zM108.17.448c2.523 0 4.099.83 5.054 1.727.829.805 1.726 2.232 1.726 4.424 0 1.245-.266 2.797-1.544 4.042a6.245 6.245 0 01-2.763 1.519l6.091 8.109h-5.585l-5.353-7.819v7.819h-4.572V.449h6.946zm-2.374 8.997h1.038c.83 0 1.958-.09 2.73-.863.324-.323.747-.954.747-1.934 0-1.128-.531-1.726-.921-2.017-.747-.564-1.934-.622-2.523-.622h-1.071v5.436zM136.011 12.184c0 1.901-.241 4.25-2.199 6.267-1.9 1.959-4.099 2.258-6.182 2.258s-4.282-.3-6.183-2.258c-1.958-2.017-2.199-4.366-2.199-6.267V.448h4.573v11.62c0 .864.058 2.316 1.037 3.329.805.863 1.9 1.037 2.763 1.037s1.959-.174 2.764-1.037c.979-1.013 1.037-2.466 1.037-3.329V.448h4.572v11.736h.017zM150.566 5.287c-1.485-1.336-2.763-1.427-3.327-1.427-.623 0-1.394.09-1.934.68a1.763 1.763 0 00-.506 1.245c0 .473.149.83.448 1.096.473.448 1.162.622 2.498 1.129l1.485.564c.863.324 1.934.772 2.706 1.519 1.161 1.095 1.452 2.523 1.452 3.685 0 2.05-.714 3.835-1.751 4.905-1.751 1.843-4.307 2.017-5.618 2.017-1.427 0-2.672-.207-3.925-.83-1.013-.506-2.166-1.427-2.913-2.166l2.373-3.27c.507.506 1.312 1.187 1.843 1.519a4.625 4.625 0 002.497.713c.598 0 1.428-.116 2.083-.68.39-.324.714-.863.714-1.602 0-.656-.266-1.07-.68-1.428-.532-.448-1.751-.888-2.316-1.095l-1.634-.565c-.922-.323-1.992-.738-2.764-1.577-1.037-1.095-1.187-2.498-1.187-3.444 0-1.751.532-3.237 1.727-4.457C143.222.39 144.89 0 146.733 0c1.369 0 3.568.24 5.883 1.959l-2.05 3.328zM166.906 5.287c-1.485-1.336-2.763-1.427-3.328-1.427-.622 0-1.394.09-1.933.68a1.759 1.759 0 00-.506 1.245c0 .473.149.83.448 1.096.473.448 1.162.622 2.498 1.129l1.485.564c.863.324 1.934.772 2.705 1.519 1.162 1.095 1.452 2.523 1.452 3.685 0 2.05-.713 3.835-1.75 4.905-1.751 1.843-4.307 2.017-5.618 2.017-1.428 0-2.673-.207-3.926-.83-1.012-.506-2.166-1.427-2.912-2.166l2.373-3.27c.506.506 1.311 1.187 1.842 1.519a4.63 4.63 0 002.498.713c.598 0 1.427-.116 2.083-.68.39-.324.714-.863.714-1.602 0-.656-.266-1.07-.681-1.428-.531-.448-1.751-.888-2.315-1.095l-1.635-.565c-.921-.323-1.992-.738-2.763-1.577-1.038-1.095-1.187-2.498-1.187-3.444 0-1.751.531-3.237 1.726-4.457C159.57.39 161.238.008 163.08.008c1.37 0 3.569.241 5.884 1.96l-2.058 3.32zM177.686.448v19.82h-4.573V.449h4.573zM193.76 16.525h-7.485l-1.519 3.744h-4.755l7.991-19.82h4.191L200 20.268h-4.755l-1.485-3.744zm-1.245-3.51l-2.44-6.657-2.464 6.657h4.904z" fill="#fff"/><path d="M11.136 7.985H.242v4.308h10.896V7.985zM105.871.465h-4.746V20.26h4.746V.465z" fill="#ED1C24"/></svg><svg fill="none" viewBox="0 0 50 50" id="microphone" xmlns="http://www.w3.org/2000/svg"><path d="M42.09 23.438a1.465 1.465 0 10-2.93 0c0 7.807-6.352 14.16-14.16 14.16s-14.16-6.353-14.16-14.16a1.465 1.465 0 10-2.93 0c0 8.93 6.885 16.28 15.625 17.026v6.606h-7.91a1.465 1.465 0 000 2.93h18.75a1.465 1.465 0 000-2.93h-7.91v-6.606c8.74-.746 15.625-8.097 15.625-17.026z" fill="#1E90FF"/><path d="M30.469 24.902a1.465 1.465 0 110-2.93h5.37v-3.32h-6.933a1.465 1.465 0 010-2.93h6.934v-3.32h-5.371a1.465 1.465 0 110-2.93h5.334C35.358 4.176 30.947 0 25.586 0h-1.172c-5.36 0-9.773 4.175-10.217 9.473h5.334a1.465 1.465 0 010 2.93h-5.37v3.32h6.933a1.465 1.465 0 010 2.93H14.16v3.32h5.371a1.465 1.465 0 110 2.93h-5.333c.448 5.244 4.858 9.374 10.216 9.374h1.172c5.358 0 9.768-4.13 10.216-9.375h-5.333z" fill="#1E90FF"/></svg><svg fill="none" viewBox="0 0 50 50" id="mobile-app" xmlns="http://www.w3.org/2000/svg"><path d="M36.112 0H13.889c-1.85 0-3.418 1.567-3.418 3.419v43.163c0 1.852 1.567 3.418 3.418 3.418h22.222c1.85 0 3.419-1.566 3.419-3.418V3.419C39.53 1.567 37.962 0 36.111 0zM21.438 2.422h7.123c.284 0 .427.143.427.428 0 .284-.143.427-.427.427h-7.122c-.285 0-.428-.143-.428-.427.002-.285.143-.428.428-.428zM25 48.147c-.996 0-1.709-.711-1.709-1.709 0-.997.712-1.567 1.71-1.567.996 0 1.709.712 1.709 1.709 0 .856-.713 1.568-1.71 1.568zm12.11-4.558H12.891V5.271H37.11v38.318z" fill="#1E90FF"/><path d="M23.291 20.513l.427-.427-3.703-3.703c-.143-.144-.285-.144-.428 0-.142.142-.142.283 0 .427l3.704 3.703zM31.267 33.048c.998.285 2.137.428 2.137.428s-.285-1.14-.428-2.135l-1.709 1.707zM17.306 18.375c-.427.57-.57 1.14-.427 1.284l5.27 5.27s.57-.712.997-1.14l1.425-1.283-5.27-5.27c-.143-.143-.712 0-1.283.428l-.427-.428c-.285-.284-.713-.284-.856 0-.284.285-.142.57 0 .855l.572.284zM28.134 25.783l-1.283 1.568c-.427.57-1.14.997-1.14.997l4.416 4.414L32.69 30.2l-4.556-4.417zM18.59 28.632c-1.424 1.425-.57 3.847-2.564 3.988 2.28 1.425 4.416.57 5.841-.854 1.425-1.425 1.14-2.564.143-3.42-.856-.854-1.996-1.138-3.42.286zM33.833 16.666c-.286-.283-.855-.142-1.425.286l-8.404 7.121c-.428.428-.855.712-1.14 1.282l-.855.997c-.427.57-.284 1.283.143 1.71l.143.143c.428.428 1.282.57 1.71.143l1.14-.854c.569-.43.854-.712 1.282-1.14l7.12-8.405c.427-.428.57-.997.286-1.283z" fill="#1E90FF"/></svg><svg fill="none" viewBox="0 0 50 50" id="smartphone" xmlns="http://www.w3.org/2000/svg"><g clip-path="url(#mclip0)" fill="#1E90FF"><path d="M5.65 43.652h19.26c-.568 2.507-.51 4.525-.51 6.348H10.043a4.4 4.4 0 01-4.395-4.395v-1.953zM33.58 4.395v21.854l-2.907-2.938a4.588 4.588 0 00-6.491 0 4.588 4.588 0 00-.012 6.48l5.611 5.834c-1.216.907-2.793 2.491-3.923 5.098H5.649V4.395A4.4 4.4 0 0110.044 0h19.14a4.4 4.4 0 014.395 4.395z"/><path d="M44.093 35.236l-2.73 13.588A1.466 1.466 0 0139.928 50H27.329c0-1.83-.067-3.891.61-6.348.417-1.509 1.076-2.957 2.06-4.183 1.257-1.561 2.535-2.12 2.637-2.163.976-.349 1.29-1.602.534-2.385l-6.897-7.17c-1.08-1.08-.31-2.855 1.154-2.855.443 0 .86.173 1.169.482 0 0 2.183 2.24 7.01 7.067a1.466 1.466 0 002.072-2.071l-1.169-1.17V19.51c4.553 4.553 4.422 4.4 4.887 4.954 2.41 2.867 3.489 6.82 2.697 10.772z"/></g><defs><clipPath id="mclip0"><path fill="#fff" d="M0 0h50v50H0z"/></clipPath></defs></svg><svg fill="none" viewBox="0 0 50 50" id="specialist" xmlns="http://www.w3.org/2000/svg"><g clip-path="url(#nclip0)"><path d="M16.963 50H44.87s-8.117-6.551-7.973-13.67c.143-3.986 7.973-8.97 7.83-20.076 0-5.553-5.411-14.808-14.524-15.947-9.112-1.14-15.946.855-18.936 6.55-2.99 5.696-3.275 10.537-2.99 11.535.284.854 1.139 2.705 1.139 2.705s-4.557 7.12-4.272 8.259c.285 1.138 3.417 1.709 3.417 1.709s.285.854-.284 2.278c-.57 1.423 1.139 3.416 1.566 3.986.427.57-.712 2.562-.285 3.701.427 1.139 2.278 2.422 4.414 2.135 2.136-.285 4.984-.855 5.98-.996 2.28 5.267-2.99 7.83-2.99 7.83zm13.669-25.63c-.284.142-.427.284-.57.284v-.285c0-.284.143-.711-.284-1.281-.712-.855-1.994-.712-2.706.284-.284.428-.284.855-.142 1.424.283.57.57.711.995.854.143 0 .143 0 .284.143-.143.144-.284.144-.427.285l-1.85 1.138-1.14-1.85c-.427-.712-.712-.997-1.139-.997-.285 0-.427.143-.57.285-.142.142-.284.426-.284.569-.143.284-.143.284-.427.427-.428.143-.855-.143-.997-.57 0-.142-.143-.569.142-.853.143-.143.285-.143.427-.143h.855c.285 0 .427-.143.57-.284.142-.285 0-.712-.285-1.424l-1.14-1.851 1.851-1.14c.712-.426.997-.71.997-1.138 0-.285-.142-.427-.285-.57-.142-.143-.427-.285-.57-.285-.284-.142-.284-.142-.426-.427-.143-.285 0-.427.142-.57.285-.426.997-.569 1.282-.142.142.285.142.285.142.57v.57c0 .711.712.854 1.851.284l1.85-1.14 1.14 1.852c.144.284.285.427.285.57h-.285c-.427 0-.854 0-1.281.284-.57.427-.713 1.139-.428 1.708.284.855 1.282 1.424 2.134.997.57-.285.712-.57.855-.997 0-.143 0-.143.144-.284.143.143.143.284.283.427l1.14 1.851-2.133 1.424zm6.834-9.682h-.284c-.428 0-.855 0-1.282.284-.57.428-.712 1.139-.427 1.71.283.854 1.281 1.423 2.134.996.57-.285.713-.57.855-.997 0-.143 0-.143.143-.285.144.144.144.285.285.428l1.14 1.851-1.852 1.139c-.712.427-.996.712-.996 1.14 0 .284.144.427.284.569.143.142.427.285.57.285.285.142.285.142.428.427.143.284 0 .427-.143.57-.285.427-.996.569-1.283.143-.143-.285-.143-.285-.143-.57v-.57c0-.426-.284-.569-.712-.569-.284 0-.57.143-1.139.427l-1.85 1.14-1.139-1.851c-.428-.712-.712-.996-1.14-.996-.284 0-.427.143-.569.284-.143.143-.284.428-.284.57-.143.285-.143.285-.427.427-.427.142-.856-.142-.996-.57 0-.143-.144-.57.142-.855.143-.143.285-.143.429-.143h.853c.284 0 .427-.142.57-.284.142-.284.142-.712-.285-1.424l-1.138-1.85 1.85-1.14c.284-.143.428-.284.57-.284v.285c0 .284-.143.71.285 1.282.71.854 1.993.711 2.705-.285.284-.427.284-.854.143-1.424-.284-.57-.57-.711-.996-.854-.143 0-.143 0-.285-.143.144-.142.285-.142.428-.284l1.85-1.14 1.14 1.851c.425.426.566.567.566.71zM26.931 7.569c.284-.143.427-.285.57-.285v.285c0 .284-.143.712.284 1.282.711.854 1.994.57 2.705-.285.284-.427.284-.854.143-1.423-.284-.57-.57-.712-.995-.855-.144 0-.144 0-.286-.143.144-.142.286-.142.429-.284l1.85-1.14 1.14 1.851c.427.712.71.997 1.138.997.285 0 .428-.143.57-.285.143-.142.285-.427.285-.57.142-.284.142-.284.427-.426.427-.143.855.142.995.57 0 .142.144.569-.142.854-.143.142-.285.142-.428.142H34.762c-.285 0-.427.143-.57.428-.142.284 0 .712.284 1.423l1.14 1.85-1.85 1.14c-.713.428-.997.712-.997 1.14 0 .284.143.426.284.569.144.143.427.284.57.284.283.143.283.143.427.428.143.284 0 .427-.144.57-.283.427-.995.569-1.282.143-.142-.286-.142-.286-.142-.571v-.57c0-.427-.285-.57-.712-.57-.283 0-.57.144-1.139.428l-1.85 1.14-.996-2.136c-.144-.285-.284-.428-.284-.57h.284c.427 0 .855 0 1.282-.284.57-.428.712-1.139.427-1.709-.284-.854-1.282-1.424-2.135-.997-.57.285-.712.57-.855.997 0 .143 0 .143-.143.285-.142-.144-.142-.286-.284-.428l-1.139-1.851 1.993-1.424zM20.38 17.821c-.142-.285-.285-.427-.285-.57h.285c.427.143.854 0 1.282-.284.569-.428.711-1.14.427-1.709-.285-.854-1.282-1.424-2.136-.997-.57.286-.712.57-.854.997 0 .143 0 .143-.143.285-.142-.143-.142-.285-.285-.427l-1.139-1.851 1.851-1.14c.712-.427.997-.711.997-1.139 0-.284-.142-.427-.285-.57-.142-.142-.427-.284-.57-.284-.284-.142-.284-.142-.426-.428-.143-.284 0-.427.142-.57.285-.426.997-.569 1.281-.142.143.285.143.285.143.57v.57c.142.712.712.854 1.85.285l1.852-1.14 1.139 1.851c.427.712.711.997 1.138.997.286 0 .428-.143.57-.285.143-.142.285-.427.285-.57.142-.284.142-.284.427-.427.427-.143.854.143.995.57 0 .142.144.57-.143.855-.142.142-.284.142-.427.142h-.855c-.284 0-.428.143-.569.285-.143.284-.143.711.284 1.423l1.14 1.851-1.995.997c-.282.142-.424.285-.568.285v-.285c0-.285.144-.712-.283-1.282-.714-.855-1.995-.711-2.706.284-.284.427-.284.854-.142 1.424.285.57.57.712.997.854.142 0 .142 0 .284.143-.142.143-.284.143-.427.284l-1.85 1.14-1.281-1.992z" fill="#1E90FF"/></g><defs><clipPath id="nclip0"><path fill="#fff" d="M0 0h50v50H0z"/></clipPath></defs></svg><svg fill="none" viewBox="0 0 24 24" id="twitter" xmlns="http://www.w3.org/2000/svg"><path d="M22 5.796a8.192 8.192 0 01-2.357.646 4.115 4.115 0 001.805-2.27 8.197 8.197 0 01-2.607.996 4.104 4.104 0 00-6.99 3.743 11.65 11.65 0 01-8.457-4.286 4.107 4.107 0 001.27 5.477 4.083 4.083 0 01-1.86-.513v.052a4.105 4.105 0 003.292 4.023 4.16 4.16 0 01-1.853.072 4.108 4.108 0 003.831 2.848A8.262 8.262 0 012 18.283a11.611 11.611 0 006.29 1.844A11.593 11.593 0 0019.962 8.454c0-.178-.005-.355-.013-.531A8.36 8.36 0 0022 5.796z" fill="#fff"/></svg><svg fill="none" viewBox="0 0 50 50" id="users" xmlns="http://www.w3.org/2000/svg"><path d="M25.625 25.458a10.25 10.25 0 003.542-7.75 10.417 10.417 0 00-20.833 0 10.25 10.25 0 003.541 7.75 16.667 16.667 0 00-9.791 15.167 2.083 2.083 0 104.166 0 12.5 12.5 0 0125 0 2.083 2.083 0 104.167 0 16.667 16.667 0 00-9.792-15.167zm-6.875-1.5a6.25 6.25 0 110-12.5 6.25 6.25 0 010 12.5zm20.292.667A10.416 10.416 0 0031.25 7.29a2.083 2.083 0 000 4.167 6.25 6.25 0 016.25 6.25 6.25 6.25 0 01-3.125 5.396 2.084 2.084 0 00-.804 2.767c.163.314.405.58.7.775l.813.541.27.146a14.583 14.583 0 018.334 13.292 2.083 2.083 0 104.166 0 18.75 18.75 0 00-8.812-16z" fill="#fff"/></svg><svg fill="none" viewBox="0 0 50 50" id="writing" xmlns="http://www.w3.org/2000/svg"><g clip-path="url(#qclip0)" fill="#1E90FF"><path d="M46.697 15.8a2.934 2.934 0 00-3.92-.202c-.167.136-.038.016-2.57 2.549l6.573 6.574 2.363-2.333a2.933 2.933 0 000-4.144L46.697 15.8zM26.723 31.753l-3.867 8.286a1.465 1.465 0 001.947 1.947l8.286-3.867c.328-.153-.664.776 11.604-11.34l-6.56-6.56c-12.165 12.164-11.254 11.2-11.41 11.534z"/><path d="M35.558 39.919a4.383 4.383 0 01-1.23.855l-8.286 3.867c-1.63.76-3.62.471-4.965-.875a4.408 4.408 0 01-.875-4.966l3.867-8.286c.217-.466.511-.886.875-1.25L37.4 16.808V4.395A4.4 4.4 0 0033.007 0H4.393A4.4 4.4 0 000 4.395v41.21A4.4 4.4 0 004.393 50h28.614a4.4 4.4 0 004.394-4.395V38.1l-1.843 1.82zM7.812 9.473h21.874a1.465 1.465 0 010 2.93H7.813a1.465 1.465 0 110-2.93zm0 7.812h17.187a1.465 1.465 0 110 2.93H7.812a1.465 1.465 0 110-2.93zm-1.465 9.277c0-.809.656-1.464 1.465-1.464h12.5a1.465 1.465 0 110 2.93h-12.5a1.465 1.465 0 01-1.465-1.465z"/></g><defs><clipPath id="qclip0"><path fill="#fff" d="M0 0h50v50H0z"/></clipPath></defs></svg></svg>