<svg width="50" height="50" viewBox="0 0 50 50" fill="none" xmlns="http://www.w3.org/2000/svg">
<g clip-path="url(#clip0)">
<path d="M47.8988 37.3811C47.4301 36.4465 46.8092 36.2914 45.8739 35.9792C41.824 34.4216 38.2408 33.6435 34.1909 32.2402C33.8801 32.0844 32.7884 31.4621 32.7884 29.4372C32.7884 28.659 32.6319 28.1918 31.6987 28.1918C31.3879 28.1918 31.5416 28.1918 31.3879 27.5687C31.0764 25.6995 31.2314 24.7643 31.2314 24.4534C31.2314 24.1419 31.5416 23.9855 31.6987 23.8304C33.1013 21.9612 33.4128 19.6255 33.4128 18.3787C33.4128 18.3787 33.7237 18.5351 33.8801 17.7556C34.1909 16.9768 34.1909 16.666 34.5032 15.7307C34.8147 14.9526 34.8147 13.3949 33.8801 13.3949C33.2571 13.5514 33.4128 13.3949 33.4128 12.7719V7.47664C33.2564 5.60748 32.166 4.51644 31.2314 3.89408C29.9846 3.11526 29.5174 2.80374 28.8957 2.33645C28.2726 1.86916 28.4284 1.40187 28.8957 0.778816C29.2065 0.467985 29.6738 0.155763 29.831 0C29.831 0 29.6738 0 29.5194 0C29.2086 0 26.2491 0.467985 25.1588 0.778816C22.823 1.40187 20.6416 2.02492 18.7718 3.58255C17.5257 4.51713 16.436 5.919 16.436 7.47733C16.436 8.25545 16.436 11.2156 16.436 12.7726C16.436 13.2399 16.436 13.5514 15.813 13.3956C14.7226 13.2392 15.3457 15.4206 15.3457 15.577C15.5014 16.3551 15.813 16.9796 16.1238 17.9128C16.2803 18.5358 16.5918 18.5358 16.5918 18.5358C16.9026 19.9384 17.3699 22.4306 18.616 23.9875C18.7725 24.144 18.9275 24.4555 18.9275 24.7664C18.7711 25.7016 18.7711 26.947 18.616 27.8809C18.616 28.0381 18.4596 28.504 18.1487 28.504C17.3699 28.504 17.0591 29.127 17.2134 29.7508C17.2134 31.1526 16.2789 32.243 15.8116 32.5531C13.7867 33.4884 6.77731 35.5133 4.44017 36.2907C2.88253 36.7587 2.41524 37.2274 2.10441 37.8484L0.0794907 42.99C8.95869 42.99 13.4751 48.4417 22.6645 49.9993C22.6645 49.9993 22.6645 49.9993 22.8209 49.9993L20.3287 45.6386L25.156 32.243L23.599 28.9713H26.7136L25.156 32.243L29.9839 45.6386L27.0238 49.6885C27.1809 49.6885 27.336 49.6885 27.336 49.6885C36.8368 48.1308 43.3789 42.6791 49.9209 42.6791L47.8988 37.3811ZM42.1356 40.0298H34.9698V38.783H42.1363V40.0298H42.1356Z" fill="#1E90FF"/>
</g>
<defs>
<clipPath id="clip0">
<rect width="50" height="49.9993" fill="white"/>
</clipPath>
</defs>
</svg>
