<svg width="50" height="50" viewBox="0 0 50 50" fill="none" xmlns="http://www.w3.org/2000/svg">
<g clip-path="url(#clip0)">
<path d="M32.5387 11.2339C29.716 5.47022 23.8113 1.65967 17.1881 1.65967C7.71112 1.65967 0.00104248 9.32599 0.00104248 18.7491C0.00104248 21.31 0.550834 23.7645 1.63597 26.053L0.0294598 34.0865C-0.175028 35.1092 0.7271 36.0131 1.74993 35.8107L9.88245 34.2028C10.9774 34.7223 12.1102 35.1173 13.2742 35.3894C10.6651 23.0322 20.0317 11.4329 32.5387 11.2339Z" fill="#1E90FF"/>
<path d="M48.365 38.5529C48.6456 37.961 48.8897 37.3579 49.0984 36.7449H49.0448C52.7018 26.0111 45.0112 14.7297 33.6578 14.1804C33.6576 14.1798 33.6575 14.1792 33.6573 14.1787C23.8884 13.7285 15.7722 21.5502 15.7722 31.249C15.7722 40.6642 23.4244 48.3244 32.8365 48.3381C35.3895 48.3347 37.8365 47.7851 40.1184 46.7027C49.0251 48.4636 48.3305 48.3384 48.5351 48.3384C49.4607 48.3384 50.1522 47.4902 49.9715 46.5864L48.365 38.5529Z" fill="#1E90FF"/>
</g>
<defs>
<clipPath id="clip0">
<rect width="50" height="50" fill="white"/>
</clipPath>
</defs>
</svg>
