<svg width="50" height="50" viewBox="0 0 50 50" fill="none" xmlns="http://www.w3.org/2000/svg">
<path d="M22.917 4.1665C18.7966 4.1665 14.7687 5.38836 11.3426 7.67755C7.91662 9.96675 5.24636 13.2205 3.66953 17.0273C2.09271 20.8341 1.68014 25.0229 2.484 29.0642C3.28785 33.1055 5.27204 36.8176 8.18563 39.7312C11.0992 42.6448 14.8114 44.629 18.8526 45.4329C22.8939 46.2367 27.0828 45.8242 30.8896 44.2473C34.6964 42.6705 37.9501 40.0002 40.2393 36.5742C42.5285 33.1482 43.7504 29.1203 43.7504 24.9998C43.7504 22.264 43.2115 19.5549 42.1645 17.0273C41.1175 14.4996 39.583 12.203 37.6484 10.2684C35.7139 8.33389 33.4172 6.79932 30.8896 5.75235C28.362 4.70537 25.6529 4.1665 22.917 4.1665ZM22.917 41.6665C19.6207 41.6665 16.3983 40.689 13.6575 38.8577C10.9167 37.0263 8.78049 34.4233 7.51903 31.3779C6.25757 28.3325 5.92751 24.9813 6.5706 21.7483C7.21369 18.5153 8.80103 15.5456 11.1319 13.2147C13.4628 10.8838 16.4325 9.2965 19.6655 8.65342C22.8985 8.01033 26.2496 8.34038 29.2951 9.60185C32.3405 10.8633 34.9435 12.9995 36.7748 15.7403C38.6062 18.4812 39.5837 21.7035 39.5837 24.9998C39.5837 29.4201 37.8277 33.6593 34.7021 36.785C31.5765 39.9106 27.3373 41.6665 22.917 41.6665ZM22.917 12.4998C22.3645 12.4998 21.8346 12.7193 21.4439 13.11C21.0532 13.5007 20.8337 14.0306 20.8337 14.5832V23.7915L16.4587 26.3123C16.0574 26.5398 15.7428 26.894 15.5645 27.3194C15.3861 27.7448 15.354 28.2174 15.4732 28.663C15.5923 29.1087 15.856 29.5022 16.2229 29.7818C16.5898 30.0614 17.0391 30.2114 17.5004 30.2082C17.8653 30.2107 18.2245 30.1173 18.542 29.9373L23.9587 26.8123L24.1462 26.6248L24.4795 26.354C24.561 26.2509 24.6308 26.1391 24.6879 26.0207C24.7558 25.9088 24.8116 25.7901 24.8545 25.6665C24.9112 25.534 24.9464 25.3934 24.9587 25.2498L25.0004 24.9998V14.5832C25.0004 14.0306 24.7809 13.5007 24.3902 13.11C23.9995 12.7193 23.4696 12.4998 22.917 12.4998Z" fill="white"/>
</svg>
