<svg width="50" height="50" viewBox="0 0 50 50" fill="none" xmlns="http://www.w3.org/2000/svg">
<g clip-path="url(#clip0)">
<path d="M5.64854 32.4875C5.08354 30.6513 4.80041 28.6731 4.80041 26.6963C4.80041 18.08 10.5923 10.735 18.6429 8.33312V10.735L29.2379 5.3675L18.6435 0V3.81375C8.33229 6.4975 0.563538 15.6788 0.563538 26.6963C0.563538 28.2494 0.705418 29.8038 0.987288 31.2163L1.41104 28.9563L5.64854 32.4875Z" fill="#1E90FF"/>
<path d="M40.254 30.0858L39.5477 41.9508L49.4359 35.4539L46.1884 33.4745C46.894 31.3577 47.1759 29.0977 47.1759 26.6945C47.1759 16.5258 40.5377 7.90891 31.4977 4.66016L33.1927 5.93141L28.109 8.05016C36.5821 10.0277 42.939 17.6552 42.939 26.6945C42.939 28.2489 42.6565 29.802 42.374 31.2145L40.254 30.0858Z" fill="#1E90FF"/>
<path d="M37.9943 39.5494C34.4618 43.3638 29.52 45.765 23.87 45.765C18.7856 45.765 14.1237 43.6457 10.7337 40.3975L12.8524 39.2669L2.96558 32.7694L3.6712 44.6344L6.91995 42.6563C11.1574 47.1763 17.2318 50 23.87 50C29.6618 50 34.8887 47.8825 38.9837 44.3507L37.2887 44.9157L37.9943 39.5494Z" fill="#1E90FF"/>
<path d="M22.3162 13.4187V16.5262C18.785 17.2331 16.8075 19.4931 16.8075 22.3181C16.8075 25.4256 19.2094 27.1206 22.5994 28.25C25.0006 29.0993 25.9887 29.805 25.9887 31.075C25.9887 32.3449 24.7168 33.0531 22.8819 33.0531C20.7631 33.0531 18.9269 32.3462 17.5137 31.6406L16.5256 35.4556C17.7969 36.1612 19.9156 36.7268 22.0337 36.8662V39.9756H25.2825V36.585C28.9543 35.8793 31.0737 33.4768 31.0737 30.6525C31.0737 27.6868 29.52 25.99 25.7062 24.5793C22.8819 23.5906 21.7519 22.8843 21.7519 21.755C21.7519 20.9068 22.4575 19.9187 24.5762 19.9187C26.9781 19.9187 28.39 20.6256 29.2381 21.0494L30.2262 17.3769C29.0962 16.8119 27.6837 16.3881 25.5643 16.2462V13.4219L22.3162 13.4187Z" fill="#1E90FF"/>
</g>
<defs>
<clipPath id="clip0">
<rect width="50" height="50" fill="white"/>
</clipPath>
</defs>
</svg>
