<svg width="50" height="50" viewBox="0 0 50 50" fill="none" xmlns="http://www.w3.org/2000/svg">
<path d="M25 4.16675C20.5797 4.16675 16.3405 5.9227 13.2149 9.0483C10.0893 12.1739 8.33333 16.4131 8.33333 20.8334C8.33333 32.0834 23.0208 44.7917 23.6458 45.3334C24.0232 45.6562 24.5034 45.8335 25 45.8335C25.4966 45.8335 25.9768 45.6562 26.3542 45.3334C27.0833 44.7917 41.6667 32.0834 41.6667 20.8334C41.6667 16.4131 39.9107 12.1739 36.7851 9.0483C33.6595 5.9227 29.4203 4.16675 25 4.16675ZM25 40.9376C20.5625 36.7709 12.5 27.7917 12.5 20.8334C12.5 17.5182 13.817 14.3388 16.1612 11.9946C18.5054 9.65038 21.6848 8.33341 25 8.33341C28.3152 8.33341 31.4946 9.65038 33.8388 11.9946C36.183 14.3388 37.5 17.5182 37.5 20.8334C37.5 27.7917 29.4375 36.7917 25 40.9376ZM25 12.5001C23.3518 12.5001 21.7407 12.9888 20.3702 13.9045C18.9998 14.8202 17.9317 16.1217 17.301 17.6444C16.6703 19.1671 16.5052 20.8427 16.8268 22.4592C17.1483 24.0757 17.942 25.5605 19.1074 26.726C20.2729 27.8914 21.7577 28.6851 23.3742 29.0066C24.9908 29.3282 26.6663 29.1631 28.189 28.5324C29.7117 27.9017 31.0132 26.8336 31.9289 25.4632C32.8446 24.0928 33.3333 22.4816 33.3333 20.8334C33.3333 18.6233 32.4554 16.5037 30.8926 14.9409C29.3298 13.3781 27.2101 12.5001 25 12.5001ZM25 25.0001C24.1759 25.0001 23.3703 24.7557 22.6851 24.2979C21.9999 23.84 21.4659 23.1893 21.1505 22.4279C20.8351 21.6666 20.7526 20.8288 20.9134 20.0205C21.0742 19.2123 21.471 18.4699 22.0537 17.8871C22.6364 17.3044 23.3789 16.9076 24.1871 16.7468C24.9954 16.586 25.8332 16.6686 26.5945 16.9839C27.3559 17.2993 28.0066 17.8333 28.4645 18.5185C28.9223 19.2037 29.1667 20.0093 29.1667 20.8334C29.1667 21.9385 28.7277 22.9983 27.9463 23.7797C27.1649 24.5611 26.1051 25.0001 25 25.0001Z" fill="white"/>
</svg>
