<svg width="200" height="38" viewBox="0 0 200 38" fill="none" xmlns="http://www.w3.org/2000/svg">
<path d="M1.51861 26.095C1.98332 26.095 2.82976 26.1365 3.45214 26.6179C3.71769 26.8171 4.20729 27.3317 4.20729 28.336C4.20729 28.751 4.11601 29.4731 3.37745 29.9711C4.54753 30.2616 4.97905 31.2659 4.97905 32.0627C4.97905 32.8595 4.57242 33.5069 4.12431 33.8555C3.45214 34.3784 2.68869 34.4033 2.1078 34.4033H0V26.095H1.51861ZM0.93772 29.747H1.64309C2.13269 29.747 3.29447 29.6474 3.29447 28.3609C3.29447 26.9914 1.93353 26.9665 1.66798 26.9665H0.93772V29.747ZM0.93772 33.5318H2.00822C2.54761 33.5318 3.07871 33.4903 3.48533 33.1832C3.81727 32.9425 4.04133 32.5358 4.04133 32.0378C4.04133 31.3738 3.6513 30.992 3.31936 30.8177C3.00402 30.6434 2.56421 30.5687 1.89204 30.5687H0.93772V33.5318Z" fill="white"/>
<path d="M7.369 32.2536C7.369 32.6188 7.369 33.0421 7.61796 33.3658C7.75903 33.5401 8.03288 33.7642 8.53908 33.7642C9.04528 33.7642 9.31913 33.5401 9.4602 33.3658C9.70916 33.0421 9.70916 32.6188 9.70916 32.2536V29.2407H10.622V32.3532C10.622 32.9923 10.5556 33.4654 10.1407 33.9136C9.67596 34.4033 9.05358 34.561 8.53908 34.561C8.02458 34.561 7.4022 34.395 6.93748 33.9136C6.52256 33.4654 6.45618 32.9923 6.45618 32.3532V29.2407H7.369V32.2536Z" fill="white"/>
<path d="M12.7962 26.6428C13.153 26.6428 13.4435 26.9333 13.4435 27.2819C13.4435 27.6305 13.153 27.921 12.7962 27.921C12.4394 27.921 12.1489 27.6305 12.1489 27.2819C12.1572 26.9333 12.4477 26.6428 12.7962 26.6428ZM13.2526 29.2324V34.4033H12.3398V29.2324H13.2526Z" fill="white"/>
<path d="M15.8749 25.3232V34.4035H14.962V25.3232H15.8749Z" fill="white"/>
<path d="M21.6091 25.3232H22.5136V34.4035H21.6091V33.6814C21.3104 34.0715 20.7378 34.5529 19.8167 34.5529C18.4889 34.5529 17.269 33.6316 17.269 31.8139C17.269 30.0294 18.4806 29.108 19.8167 29.108C20.8291 29.108 21.3685 29.6559 21.6091 29.9713V25.3232ZM18.1985 31.8139C18.1985 32.9261 18.8291 33.7561 19.9162 33.7561C21.0282 33.7561 21.6589 32.8431 21.6589 31.8222C21.6589 30.4859 20.7212 29.9049 19.9162 29.9049C19.02 29.9132 18.1985 30.5606 18.1985 31.8139Z" fill="white"/>
<path d="M24.5633 26.6428C24.9201 26.6428 25.2106 26.9333 25.2106 27.2819C25.2106 27.6305 24.9201 27.921 24.5633 27.921C24.2065 27.921 23.916 27.6305 23.916 27.2819C23.916 26.9333 24.2065 26.6428 24.5633 26.6428ZM25.0197 29.2324V34.4033H24.1069V29.2324H25.0197Z" fill="white"/>
<path d="M26.7374 29.2327H27.6502V29.8303C27.8162 29.6145 28.2809 29.1082 29.1523 29.1082C29.7746 29.1082 30.3389 29.3572 30.6543 29.822C30.9198 30.2121 30.953 30.6354 30.953 31.2081V34.4119H30.0402V31.233C30.0402 30.9176 30.0153 30.5607 29.7995 30.2868C29.6253 30.0627 29.3431 29.9133 28.9448 29.9133C28.6295 29.9133 28.2892 30.0046 28.0237 30.3117C27.6668 30.7267 27.642 31.3326 27.642 31.7061V34.4119H26.7291V29.2327H26.7374Z" fill="white"/>
<path d="M36.6789 29.2327H37.5835V34.2791C37.5835 34.8435 37.5835 35.6403 37.0773 36.3126C36.6872 36.8355 35.9653 37.2754 34.9861 37.2754C34.0898 37.2754 33.4674 36.9268 33.1189 36.5782C32.7704 36.2296 32.4384 35.6652 32.4384 34.9099H33.3347C33.3347 35.3498 33.5089 35.7316 33.7413 35.9806C34.123 36.3956 34.596 36.4786 35.0027 36.4786C35.6499 36.4786 36.0897 36.2545 36.3885 35.7565C36.654 35.3332 36.6789 34.8684 36.6789 34.4368V33.6898C36.3802 34.0799 35.8076 34.5613 34.8865 34.5613C34.1147 34.5613 33.5006 34.2625 33.094 33.8641C32.7372 33.5155 32.3389 32.8681 32.3389 31.8223C32.3389 30.8097 32.7206 30.1872 33.094 29.8137C33.5338 29.3904 34.1811 29.1165 34.8865 29.1165C35.6582 29.1165 36.264 29.4402 36.6789 29.9797V29.2327ZM33.7994 30.3947C33.3596 30.8429 33.2683 31.3907 33.2683 31.814C33.2683 32.2622 33.3596 32.8764 33.8658 33.3329C34.1562 33.5985 34.513 33.7562 34.9861 33.7562C35.4591 33.7562 35.8408 33.6068 36.1312 33.3163C36.4881 32.976 36.7204 32.4282 36.7204 31.8223C36.7204 31.2081 36.4964 30.6769 36.1644 30.3615C35.874 30.071 35.4425 29.8967 34.9778 29.8967C34.4301 29.9133 34.0566 30.1457 33.7994 30.3947Z" fill="white"/>
<path d="M46.2388 27.7386C46.1226 27.5145 45.94 27.2655 45.7492 27.1161C45.5832 26.9916 45.2845 26.8256 44.8032 26.8256C43.9733 26.8256 43.3924 27.3402 43.3924 28.1121C43.3924 28.4358 43.4837 28.6267 43.7078 28.8342C43.9567 29.0832 44.2721 29.2243 44.5874 29.3571L45.3923 29.7057C45.882 29.9215 46.3384 30.1456 46.6952 30.4942C47.1267 30.9175 47.301 31.4072 47.301 32.0048C47.301 33.5403 46.1558 34.5612 44.6372 34.5612C44.0812 34.5612 43.3841 34.4533 42.8032 33.8889C42.3883 33.4905 42.1311 32.9178 42.0232 32.4198L42.936 32.1708C43.0024 32.6107 43.2016 32.9842 43.4422 33.2332C43.8074 33.5984 44.2223 33.698 44.6538 33.698C45.799 33.698 46.3467 32.8846 46.3467 32.0546C46.3467 31.6811 46.2305 31.3574 45.9317 31.0835C45.6911 30.8594 45.3675 30.71 44.9193 30.5108L44.1642 30.1622C43.8322 30.0128 43.4173 29.8385 43.0439 29.4733C42.6788 29.1247 42.463 28.7346 42.463 28.1121C42.463 26.8256 43.4588 25.9707 44.8198 25.9707C45.3343 25.9707 45.7575 26.0703 46.1724 26.3442C46.5126 26.5683 46.8031 26.9086 46.9939 27.2655L46.2388 27.7386Z" fill="white"/>
<path d="M49.6909 25.3232V31.1499L51.6078 29.2326H52.7945L50.5456 31.4487L53.1928 34.4035H52.0062L49.915 32.0463L49.6909 32.2704V34.4035H48.7781V25.3232H49.6909Z" fill="white"/>
<path d="M54.5621 26.6428C54.9189 26.6428 55.2093 26.9333 55.2093 27.2819C55.2093 27.6305 54.9189 27.921 54.5621 27.921C54.2052 27.921 53.9148 27.6305 53.9148 27.2819C53.9231 26.9333 54.2135 26.6428 54.5621 26.6428ZM55.0185 29.2324V34.4033H54.1057V29.2324H55.0185Z" fill="white"/>
<path d="M57.6491 25.3232V34.4035H56.7363V25.3232H57.6491Z" fill="white"/>
<path d="M60.2714 25.3232V34.4035H59.3585V25.3232H60.2714Z" fill="white"/>
<path d="M64.1467 30.4362C64.0223 30.1374 63.7567 29.9133 63.4165 29.9133C63.0845 29.9133 62.7858 30.1042 62.7858 30.5026C62.7858 30.8761 63.0347 30.9923 63.6322 31.2413C64.3874 31.5567 64.7442 31.7891 64.9434 32.0381C65.1674 32.312 65.2172 32.5859 65.2172 32.8764C65.2172 33.9637 64.4206 34.5696 63.4165 34.5696C63.2007 34.5696 62.0306 34.5447 61.5825 33.2499L62.3626 32.9262C62.4622 33.2001 62.7692 33.7728 63.4248 33.7728C64.014 33.7728 64.2795 33.3329 64.2795 32.9511C64.2795 32.4614 63.9227 32.3037 63.4331 32.0879C62.8024 31.814 62.3958 31.6148 62.1551 31.3243C61.9559 31.0753 61.9145 30.8263 61.9145 30.5607C61.9145 29.6477 62.5617 29.1165 63.4414 29.1165C63.7152 29.1165 64.4621 29.1663 64.877 30.0544L64.1467 30.4362Z" fill="white"/>
<path d="M67.0097 33.283C67.3499 33.283 67.6404 33.5735 67.6404 33.9055C67.6404 34.2375 67.3499 34.528 67.0097 34.528C66.6695 34.528 66.379 34.2375 66.379 33.9055C66.379 33.5735 66.6695 33.283 67.0097 33.283Z" fill="white"/>
<path d="M73.9886 26.095C74.4533 26.095 75.2997 26.1365 75.9221 26.6179C76.1877 26.8171 76.6773 27.3317 76.6773 28.336C76.6773 28.751 76.586 29.4731 75.8474 29.9711C77.0175 30.2616 77.449 31.2659 77.449 32.0627C77.449 32.8595 77.0424 33.5069 76.5943 33.8555C75.9221 34.3784 75.1587 34.4033 74.5778 34.4033H72.4866V26.095H73.9886ZM73.4077 29.747H74.1131C74.6027 29.747 75.7645 29.6474 75.7645 28.3609C75.7645 26.9914 74.4035 26.9665 74.138 26.9665H73.4077V29.747ZM73.4077 33.5318H74.4782C75.0176 33.5318 75.5487 33.4903 75.9553 33.1832C76.2873 32.9425 76.5113 32.5358 76.5113 32.0378C76.5113 31.3738 76.1213 30.992 75.7893 30.8177C75.474 30.6434 75.0342 30.5687 74.362 30.5687H73.3994V33.5318H73.4077Z" fill="white"/>
<path d="M79.8473 32.2536C79.8473 32.6188 79.8473 33.0421 80.0963 33.3658C80.2374 33.5401 80.5112 33.7642 81.0174 33.7642C81.5236 33.7642 81.7975 33.5401 81.9385 33.3658C82.1875 33.0421 82.1875 32.6188 82.1875 32.2536V29.2407H83.1003V32.3532C83.1003 32.9923 83.0339 33.4654 82.619 33.9136C82.1543 34.4033 81.5319 34.561 81.0174 34.561C80.5029 34.561 79.8805 34.395 79.4158 33.9136C79.0009 33.4654 78.9345 32.9923 78.9345 32.3532V29.2407H79.8473V32.2536Z" fill="white"/>
<path d="M85.2745 26.6428C85.6313 26.6428 85.9217 26.9333 85.9217 27.2819C85.9217 27.6305 85.6313 27.921 85.2745 27.921C84.9176 27.921 84.6272 27.6305 84.6272 27.2819C84.6355 26.9333 84.9259 26.6428 85.2745 26.6428ZM85.7309 29.2324V34.4033H84.8181V29.2324H85.7309Z" fill="white"/>
<path d="M88.3532 25.3232V34.4035H87.4404V25.3232H88.3532Z" fill="white"/>
<path d="M94.0874 25.3232H94.9919V34.4035H94.0874V33.6814C93.7886 34.0715 93.2161 34.5529 92.2949 34.5529C90.9672 34.5529 89.7473 33.6316 89.7473 31.8139C89.7473 30.0294 90.9589 29.108 92.2949 29.108C93.3073 29.108 93.8467 29.6559 94.0874 29.9713V25.3232ZM90.6767 31.8139C90.6767 32.9261 91.3074 33.7561 92.3945 33.7561C93.5065 33.7561 94.1372 32.8431 94.1372 31.8222C94.1372 30.4859 93.1995 29.9049 92.3945 29.9049C91.4983 29.9132 90.6767 30.5606 90.6767 31.8139Z" fill="white"/>
<path d="M97.0416 26.6428C97.3985 26.6428 97.6889 26.9333 97.6889 27.2819C97.6889 27.6305 97.3985 27.921 97.0416 27.921C96.6848 27.921 96.3943 27.6305 96.3943 27.2819C96.3943 26.9333 96.6848 26.6428 97.0416 26.6428ZM97.498 29.2324V34.4033H96.5852V29.2324H97.498Z" fill="white"/>
<path d="M99.2075 29.2327H100.12V29.8303C100.286 29.6145 100.751 29.1082 101.622 29.1082C102.245 29.1082 102.809 29.3572 103.124 29.822C103.39 30.2121 103.423 30.6354 103.423 31.2081V34.4119H102.51V31.233C102.51 30.9176 102.485 30.5607 102.27 30.2868C102.095 30.0627 101.813 29.9133 101.415 29.9133C101.1 29.9133 100.759 30.0046 100.494 30.3117C100.137 30.7267 100.112 31.3326 100.112 31.7061V34.4119H99.1992V29.2327H99.2075Z" fill="white"/>
<path d="M109.157 29.2327H110.062V34.2791C110.062 34.8435 110.062 35.6403 109.556 36.3126C109.166 36.8355 108.444 37.2754 107.464 37.2754C106.568 37.2754 105.946 36.9268 105.597 36.5782C105.249 36.2296 104.917 35.6652 104.917 34.9099H105.813C105.813 35.3498 105.987 35.7316 106.22 35.9806C106.601 36.3956 107.074 36.4786 107.481 36.4786C108.128 36.4786 108.568 36.2545 108.867 35.7565C109.132 35.3332 109.157 34.8684 109.157 34.4368V33.6898C108.859 34.0799 108.286 34.5613 107.365 34.5613C106.593 34.5613 105.979 34.2625 105.572 33.8641C105.216 33.5155 104.817 32.8681 104.817 31.8223C104.817 30.8097 105.199 30.1872 105.572 29.8137C106.012 29.3904 106.66 29.1165 107.365 29.1165C108.137 29.1165 108.742 29.4402 109.157 29.9797V29.2327ZM106.278 30.3947C105.838 30.8429 105.747 31.3907 105.747 31.814C105.747 32.2622 105.838 32.8764 106.344 33.3329C106.635 33.5985 106.991 33.7562 107.464 33.7562C107.937 33.7562 108.319 33.6068 108.61 33.3163C108.966 32.976 109.199 32.4282 109.199 31.8223C109.199 31.2081 108.975 30.6769 108.643 30.3615C108.352 30.071 107.921 29.8967 107.456 29.8967C106.908 29.9133 106.535 30.1457 106.278 30.3947Z" fill="white"/>
<path d="M121.389 27.9293C121.124 27.6637 120.717 27.3566 120.294 27.1574C119.854 26.9582 119.331 26.8337 118.842 26.8337C116.9 26.8337 115.456 28.3775 115.456 30.2948C115.456 32.5524 117.315 33.6812 118.85 33.6812C119.414 33.6812 119.97 33.5152 120.418 33.2911C120.9 33.0504 121.24 32.7433 121.389 32.5939V33.7393C120.451 34.4033 119.481 34.5527 118.85 34.5527C116.352 34.5527 114.493 32.6852 114.493 30.2782C114.493 27.7965 116.377 25.9539 118.9 25.9539C119.406 25.9539 120.377 26.012 121.389 26.7756V27.9293Z" fill="white"/>
<path d="M126.891 29.2327H127.796V34.4036H126.891V33.6815C126.592 34.0716 126.02 34.553 125.099 34.553C123.771 34.553 122.551 33.6317 122.551 31.814C122.551 30.0295 123.763 29.1082 125.099 29.1082C126.111 29.1082 126.65 29.656 126.891 29.9714V29.2327ZM123.48 31.814C123.48 32.9262 124.111 33.7562 125.198 33.7562C126.31 33.7562 126.941 32.8432 126.941 31.8223C126.941 30.486 126.003 29.905 125.198 29.905C124.302 29.9133 123.48 30.5607 123.48 31.814Z" fill="white"/>
<path d="M129.513 29.2327H130.426V29.7971C130.517 29.6643 130.907 29.1082 131.613 29.1082C131.887 29.1082 132.194 29.2078 132.418 29.324L131.986 30.1374C131.787 29.9963 131.596 29.9631 131.455 29.9631C131.09 29.9631 130.866 30.1125 130.725 30.2868C130.575 30.486 130.426 30.8346 130.426 31.6812V34.4119H129.513V29.2327Z" fill="white"/>
<path d="M137.596 33.0839C137.447 33.3744 137.214 33.6815 136.949 33.9222C136.467 34.3455 135.878 34.5613 135.206 34.5613C133.945 34.5613 132.617 33.7728 132.617 31.8555C132.617 30.3117 133.579 29.1165 135.156 29.1165C136.177 29.1165 136.824 29.6145 137.14 30.0627C137.471 30.5275 137.654 31.3243 137.629 32.0049H133.555C133.571 33.0756 134.31 33.7645 135.223 33.7645C135.654 33.7645 135.994 33.64 136.293 33.391C136.534 33.1918 136.725 32.9262 136.832 32.6772L137.596 33.0839ZM136.7 31.2579C136.55 30.4445 135.928 29.9133 135.156 29.9133C134.384 29.9133 133.754 30.486 133.613 31.2579H136.7Z" fill="white"/>
<path d="M143.67 33.0839C143.521 33.3744 143.289 33.6815 143.023 33.9222C142.542 34.3455 141.953 34.5613 141.28 34.5613C140.019 34.5613 138.691 33.7728 138.691 31.8555C138.691 30.3117 139.654 29.1165 141.231 29.1165C142.251 29.1165 142.899 29.6145 143.214 30.0627C143.546 30.5275 143.728 31.3243 143.704 32.0049H139.629C139.646 33.0756 140.384 33.7645 141.297 33.7645C141.729 33.7645 142.069 33.64 142.368 33.391C142.608 33.1918 142.799 32.9262 142.907 32.6772L143.67 33.0839ZM142.774 31.2579C142.625 30.4445 142.002 29.9133 141.231 29.9133C140.459 29.9133 139.828 30.486 139.687 31.2579H142.774Z" fill="white"/>
<path d="M145.089 29.2327H146.002V29.7971C146.094 29.6643 146.484 29.1082 147.189 29.1082C147.463 29.1082 147.77 29.2078 147.994 29.324L147.562 30.1374C147.363 29.9963 147.172 29.9631 147.031 29.9631C146.666 29.9631 146.442 30.1125 146.301 30.2868C146.152 30.486 146.002 30.8346 146.002 31.6812V34.4119H145.089V29.2327Z" fill="white"/>
<path d="M150.849 30.4362C150.724 30.1374 150.458 29.9133 150.118 29.9133C149.786 29.9133 149.488 30.1042 149.488 30.5026C149.488 30.8761 149.737 30.9923 150.334 31.2413C151.089 31.5567 151.446 31.7891 151.645 32.0381C151.869 32.312 151.919 32.5859 151.919 32.8764C151.919 33.9637 151.122 34.5696 150.118 34.5696C149.902 34.5696 148.732 34.5447 148.284 33.2499L149.064 32.9262C149.164 33.2001 149.471 33.7728 150.127 33.7728C150.716 33.7728 150.981 33.3329 150.981 32.9511C150.981 32.4614 150.624 32.3037 150.135 32.0879C149.504 31.814 149.098 31.6148 148.857 31.3243C148.658 31.0753 148.616 30.8263 148.616 30.5607C148.616 29.6477 149.264 29.1165 150.143 29.1165C150.417 29.1165 151.164 29.1663 151.579 30.0544L150.849 30.4362Z" fill="white"/>
<path d="M153.711 33.283C154.052 33.283 154.342 33.5735 154.342 33.9055C154.342 34.2375 154.052 34.528 153.711 34.528C153.371 34.528 153.081 34.2375 153.081 33.9055C153.081 33.5735 153.371 33.283 153.711 33.283Z" fill="white"/>
<path d="M11.2361 4.30775H4.81315V8.14236H10.7548V12.0019H4.81315V20.2604H0.240723V0.448242H11.2361V4.30775Z" fill="white"/>
<path d="M19.1693 0.448242V16.4009H25.3185V20.2604H14.5886V0.448242H19.1693Z" fill="white"/>
<path d="M44.6538 12.1845C44.6538 14.0852 44.4131 16.4341 42.4547 18.451C40.5544 20.4098 38.3553 20.7086 36.2724 20.7086C34.1895 20.7086 31.9904 20.4098 30.0901 18.451C28.1316 16.4341 27.891 14.0852 27.891 12.1845V0.448242H32.4634V12.0683C32.4634 12.9315 32.5215 14.384 33.5007 15.3966C34.3057 16.2598 35.4011 16.4341 36.2641 16.4341C37.1271 16.4341 38.2225 16.2598 39.0275 15.3966C40.0067 14.384 40.0648 12.9315 40.0648 12.0683V0.448242H44.6372V12.1845H44.6538Z" fill="white"/>
<path d="M60.1967 4.30775H53.5746V8.14236H59.8731V12.0019H53.5746V16.4009H60.1967V20.2604H48.9939V0.448242H60.1967V4.30775Z" fill="white"/>
<path d="M63.9061 20.2687V0.448242H67.8894L78.6441 13.222V0.448242H83.2165V20.2687H79.2333L68.4785 7.42856V20.2687H63.9061Z" fill="white"/>
<path d="M94.5023 4.30775V20.2604H89.9299V4.30775H85.623V0.448242H98.8175V4.30775H94.5023Z" fill="white"/>
<path d="M108.17 0.448242C110.693 0.448242 112.269 1.27824 113.224 2.17465C114.053 2.97975 114.95 4.40735 114.95 6.59856C114.95 7.84356 114.684 9.39566 113.406 10.6407C112.726 11.2964 111.746 11.8857 110.643 12.1596L116.734 20.2687H111.149L105.796 12.4501V20.2687H101.224V0.448242H108.17ZM105.796 9.44546H106.834C107.664 9.44546 108.792 9.35416 109.564 8.58226C109.888 8.25856 110.311 7.62776 110.311 6.64836C110.311 5.51955 109.78 4.92195 109.39 4.63145C108.643 4.06705 107.456 4.00895 106.867 4.00895H105.796V9.44546Z" fill="white"/>
<path d="M136.011 12.1845C136.011 14.0852 135.77 16.4341 133.812 18.451C131.912 20.4098 129.713 20.7086 127.63 20.7086C125.547 20.7086 123.348 20.4098 121.447 18.451C119.489 16.4341 119.248 14.0852 119.248 12.1845V0.448242H123.821V12.0683C123.821 12.9315 123.879 14.384 124.858 15.3966C125.663 16.2598 126.758 16.4341 127.621 16.4341C128.484 16.4341 129.58 16.2598 130.385 15.3966C131.364 14.384 131.422 12.9315 131.422 12.0683V0.448242H135.994V12.1845H136.011Z" fill="white"/>
<path d="M150.566 5.28711C149.081 3.95081 147.803 3.85951 147.239 3.85951C146.616 3.85951 145.845 3.95081 145.305 4.54011C145.007 4.83891 144.799 5.27881 144.799 5.78511C144.799 6.25821 144.948 6.61511 145.247 6.88072C145.72 7.32892 146.409 7.50322 147.745 8.00952L149.23 8.57392C150.093 8.89762 151.164 9.34582 151.936 10.0928C153.097 11.1884 153.388 12.616 153.388 13.778C153.388 15.8281 152.674 17.6126 151.637 18.6833C149.886 20.5259 147.33 20.7002 146.019 20.7002C144.592 20.7002 143.347 20.4927 142.094 19.8702C141.081 19.3639 139.928 18.4426 139.181 17.7039L141.554 14.4337C142.061 14.94 142.866 15.6206 143.397 15.9526C144.168 16.4257 144.973 16.6664 145.894 16.6664C146.492 16.6664 147.322 16.5502 147.977 15.9858C148.367 15.6621 148.691 15.1226 148.691 14.3839C148.691 13.7282 148.425 13.3132 148.011 12.9563C147.479 12.5081 146.26 12.0682 145.695 11.8607L144.061 11.2963C143.139 10.9726 142.069 10.5576 141.297 9.71932C140.26 8.62372 140.11 7.22102 140.11 6.27481C140.11 4.52351 140.642 3.03781 141.837 1.8177C143.222 0.390101 144.89 0 146.733 0C148.102 0 150.301 0.2407 152.616 1.9588L150.566 5.28711Z" fill="white"/>
<path d="M166.906 5.28711C165.421 3.95081 164.143 3.85951 163.578 3.85951C162.956 3.85951 162.184 3.95081 161.645 4.54011C161.346 4.83891 161.139 5.27881 161.139 5.78511C161.139 6.25821 161.288 6.61511 161.587 6.88072C162.06 7.32892 162.749 7.50322 164.085 8.00952L165.57 8.57392C166.433 8.89762 167.504 9.34582 168.275 10.0928C169.437 11.1884 169.727 12.616 169.727 13.778C169.727 15.8281 169.014 17.6126 167.977 18.6833C166.226 20.5259 163.67 20.7002 162.359 20.7002C160.931 20.7002 159.686 20.4927 158.433 19.8702C157.421 19.3639 156.267 18.4426 155.521 17.7039L157.894 14.4337C158.4 14.94 159.205 15.6206 159.736 15.9526C160.508 16.4257 161.313 16.6664 162.234 16.6664C162.832 16.6664 163.661 16.5502 164.317 15.9858C164.707 15.6621 165.031 15.1226 165.031 14.3839C165.031 13.7282 164.765 13.3132 164.35 12.9563C163.819 12.5081 162.599 12.0682 162.035 11.8607L160.4 11.2963C159.479 10.9726 158.408 10.5576 157.637 9.71932C156.599 8.62372 156.45 7.22102 156.45 6.27481C156.45 4.52351 156.981 3.03781 158.176 1.8177C159.57 0.390102 161.238 0.00830078 163.08 0.00830078C164.45 0.00830078 166.649 0.249001 168.964 1.9671L166.906 5.28711Z" fill="white"/>
<path d="M177.686 0.448242V20.2687H173.113V0.448242H177.686Z" fill="white"/>
<path d="M193.76 16.5254H186.275L184.756 20.2687H180.001L187.992 0.448242H192.183L200 20.2687H195.245L193.76 16.5254ZM192.515 13.0145L190.075 6.35786L187.611 13.0145H192.515Z" fill="white"/>
<path d="M11.1365 7.98486H0.240723V12.2925H11.1365V7.98486Z" fill="#ED1C24"/>
<path d="M105.871 0.464844H101.125V20.2604H105.871V0.464844Z" fill="#ED1C24"/>
</svg>
