<svg width="50" height="50" viewBox="0 0 50 50" fill="none" xmlns="http://www.w3.org/2000/svg">
<path d="M42.0898 23.4375C42.0898 22.6285 41.434 21.9727 40.625 21.9727C39.816 21.9727 39.1602 22.6285 39.1602 23.4375C39.1602 31.2454 32.8079 37.5977 25 37.5977C17.1921 37.5977 10.8398 31.2454 10.8398 23.4375C10.8398 22.6285 10.184 21.9727 9.375 21.9727C8.56602 21.9727 7.91016 22.6285 7.91016 23.4375C7.91016 32.3674 14.795 39.7184 23.5352 40.4639V47.0703H15.625C14.816 47.0703 14.1602 47.7262 14.1602 48.5352C14.1602 49.3441 14.816 50 15.625 50H34.375C35.184 50 35.8398 49.3441 35.8398 48.5352C35.8398 47.7262 35.184 47.0703 34.375 47.0703H26.4648V40.4639C35.205 39.7184 42.0898 32.3674 42.0898 23.4375Z" fill="#1E90FF"/>
<path d="M30.4688 24.9023C29.6598 24.9023 29.0039 24.2465 29.0039 23.4375C29.0039 22.6285 29.6598 21.9727 30.4688 21.9727H35.8398V18.6523H28.9062C28.0973 18.6523 27.4414 17.9965 27.4414 17.1875C27.4414 16.3785 28.0973 15.7227 28.9062 15.7227H35.8398V12.4023H30.4688C29.6598 12.4023 29.0039 11.7465 29.0039 10.9375C29.0039 10.1285 29.6598 9.47266 30.4688 9.47266H35.8025C35.3591 4.17461 30.9467 0 25.5859 0H24.4141C19.0533 0 14.6408 4.17471 14.1974 9.47266H19.5312C20.3402 9.47266 20.9961 10.1285 20.9961 10.9375C20.9961 11.7465 20.3402 12.4023 19.5312 12.4023H14.1602V15.7227H21.0938C21.9027 15.7227 22.5586 16.3785 22.5586 17.1875C22.5586 17.9965 21.9027 18.6523 21.0938 18.6523H14.1602V21.9727H19.5312C20.3402 21.9727 20.9961 22.6285 20.9961 23.4375C20.9961 24.2465 20.3402 24.9023 19.5312 24.9023H14.1982C14.6456 30.1465 19.0562 34.2773 24.4141 34.2773H25.5859C30.9438 34.2773 35.3544 30.1465 35.8018 24.9023H30.4688Z" fill="#1E90FF"/>
</svg>
