<svg width="50" height="50" viewBox="0 0 50 50" fill="none" xmlns="http://www.w3.org/2000/svg">
<path d="M36.112 0H13.8894C12.0382 0 10.4706 1.56693 10.4706 3.41876V46.5819C10.4706 48.4337 12.0382 50 13.8894 50H36.1113C37.9619 50 39.5295 48.4337 39.5295 46.5819V3.41876C39.5301 1.56693 37.9632 0 36.112 0ZM21.4385 2.42226H28.5609C28.8452 2.42226 28.9883 2.56471 28.9883 2.8496C28.9883 3.1345 28.8452 3.27695 28.5609 3.27695H21.4385C21.1543 3.27695 21.0112 3.1345 21.0112 2.8496C21.0125 2.56471 21.1543 2.42226 21.4385 2.42226ZM25.0004 48.1475C24.0039 48.1475 23.291 47.4359 23.291 46.4382C23.291 45.441 24.0032 44.8706 25.0004 44.8706C25.9969 44.8706 26.7098 45.5835 26.7098 46.58C26.7098 47.4359 25.9969 48.1475 25.0004 48.1475ZM37.1091 43.5892H12.8923V5.27059H37.1091V43.5892Z" fill="#1E90FF"/>
<path d="M23.291 20.5131L23.7184 20.0857L20.0153 16.3827C19.8723 16.239 19.7305 16.239 19.5874 16.3827C19.4449 16.5251 19.4449 16.6663 19.5874 16.81L23.291 20.5131Z" fill="#1E90FF"/>
<path d="M31.2674 33.0479C32.2646 33.3334 33.4035 33.4759 33.4035 33.4759C33.4035 33.4759 33.1193 32.3369 32.9762 31.3411L31.2674 33.0479Z" fill="#1E90FF"/>
<path d="M17.3065 18.3755C16.8791 18.9453 16.7367 19.5157 16.8791 19.6588L22.1497 24.9287C22.1497 24.9287 22.7195 24.2171 23.1462 23.7898L24.5707 22.5065L19.3008 17.2365C19.1577 17.0934 18.5885 17.2365 18.0181 17.6639L17.5907 17.2365C17.3058 16.9523 16.8785 16.9523 16.7354 17.2365C16.4512 17.5208 16.593 17.8063 16.7354 18.0912L17.3065 18.3755Z" fill="#1E90FF"/>
<path d="M28.1336 25.7831L26.8509 27.3506C26.4236 27.9204 25.7113 28.3478 25.7113 28.3478L30.1266 32.7624L32.69 30.1996L28.1336 25.7831Z" fill="#1E90FF"/>
<path d="M18.5897 28.6324C17.1659 30.0569 18.0199 32.4792 16.0263 32.6203C18.3055 34.0448 20.4416 33.1901 21.8673 31.7657C23.2918 30.3412 23.0069 29.2022 22.0098 28.3463C21.1538 27.4922 20.0142 27.2079 18.5897 28.6324Z" fill="#1E90FF"/>
<path d="M33.8329 16.6662C33.5474 16.3826 32.9776 16.5237 32.4085 16.9517L24.004 24.0735C23.576 24.5008 23.1487 24.7851 22.8644 25.3555L22.0091 26.352C21.5818 26.9218 21.7248 27.6347 22.1522 28.0614L22.2953 28.2051C22.7226 28.6325 23.5773 28.7749 24.0046 28.3482L25.1442 27.4935C25.714 27.0649 25.9989 26.7819 26.4275 26.3533L33.5461 17.9489C33.9735 17.5215 34.1166 16.9517 33.8329 16.6662Z" fill="#1E90FF"/>
</svg>
