<svg width="50" height="50" viewBox="0 0 50 50" fill="none" xmlns="http://www.w3.org/2000/svg">
<g clip-path="url(#clip0)">
<path d="M5.64948 43.6523H24.9102C24.342 46.1592 24.3995 48.1769 24.3995 50H10.044C7.62116 50 5.64948 48.0283 5.64948 45.6055V43.6523Z" fill="#1E90FF"/>
<path d="M33.5792 4.39453V26.249L30.6729 23.3115C28.8766 21.5152 25.9727 21.5196 24.1817 23.3105C22.3813 25.1089 22.3975 28.0084 24.17 29.791L29.7813 35.625C28.5645 36.5322 26.9883 38.1162 25.8575 40.7227H5.64948V4.39453C5.64948 1.97168 7.62116 0 10.044 0H29.1846C31.6075 0 33.5792 1.97168 33.5792 4.39453Z" fill="#1E90FF"/>
<path d="M44.093 35.236L41.3635 48.8239C41.2268 49.5006 40.632 50.0006 39.927 50.0006H27.3293C27.3293 48.1715 27.2619 46.11 27.9397 43.653C28.3557 42.1442 29.0149 40.6959 29.9992 39.4703C31.2561 37.9088 32.5344 37.3502 32.6359 37.3073C33.612 36.9581 33.9262 35.7049 33.1701 34.9225L26.2727 27.7516C25.1926 26.6725 25.9621 24.8971 27.427 24.8971C27.8703 24.8971 28.2873 25.0699 28.5959 25.3785C28.5959 25.3785 30.7795 27.6188 35.6066 32.4459C36.1809 33.0201 37.1096 33.0143 37.6779 32.4459C38.2502 31.8737 38.2502 30.9469 37.6779 30.3746L36.509 29.2057V19.5104C41.0617 24.0631 40.9309 23.9108 41.3957 24.4645C43.8059 27.3307 44.885 31.2838 44.093 35.236Z" fill="#1E90FF"/>
</g>
<defs>
<clipPath id="clip0">
<rect width="50" height="50" fill="white"/>
</clipPath>
</defs>
</svg>
