<svg width="50" height="50" viewBox="0 0 50 50" fill="none" xmlns="http://www.w3.org/2000/svg">
<g clip-path="url(#clip0)">
<path d="M16.9628 49.9999H44.8696C44.8696 49.9999 36.753 43.4489 36.8967 36.3297C37.0397 32.3435 44.8696 27.36 44.7279 16.254C44.7279 10.701 39.316 1.44598 30.2033 0.306897C21.0907 -0.832183 14.2569 1.16184 11.2668 6.85724C8.27669 12.5526 7.99192 17.3937 8.27669 18.3917C8.56146 19.246 9.41577 21.097 9.41577 21.097C9.41577 21.097 4.85945 28.2163 5.14422 29.356C5.42899 30.4944 8.56146 31.0646 8.56146 31.0646C8.56146 31.0646 8.84623 31.9189 8.27669 33.3428C7.70715 34.766 9.41577 36.7594 9.84292 37.3289C10.2701 37.8984 9.131 39.8906 9.55816 41.0303C9.98531 42.1687 11.8363 43.4521 13.9721 43.1654C16.1079 42.88 18.9556 42.3098 19.9523 42.1687C22.2317 47.4363 16.9628 49.9999 16.9628 49.9999ZM30.6318 24.3693C30.3476 24.5123 30.2046 24.6541 30.0622 24.6541C30.0622 24.5117 30.0622 24.5117 30.0622 24.3693C30.0622 24.0852 30.2052 23.658 29.7781 23.0879C29.0662 22.2335 27.7841 22.3759 27.0715 23.372C26.788 23.7998 26.788 24.2269 26.9298 24.7958C27.2133 25.3654 27.4993 25.5071 27.9252 25.6501C28.0676 25.6501 28.0676 25.6501 28.2093 25.7932C28.0657 25.9368 27.9252 25.9368 27.7822 26.0779L25.9311 27.2164L24.7921 25.366C24.3649 24.6535 24.0801 24.3687 23.653 24.3687C23.3682 24.3687 23.2258 24.5117 23.0835 24.6535C22.9411 24.7958 22.7987 25.08 22.7987 25.223C22.6563 25.5071 22.6563 25.5071 22.3715 25.6501C21.9444 25.7932 21.5172 25.5071 21.3748 25.0806C21.3748 24.9382 21.2324 24.5111 21.5172 24.2269C21.6596 24.0845 21.802 24.0845 21.9444 24.0845C22.0868 24.0845 22.0868 24.0845 22.2291 24.0845C22.3715 24.0845 22.5139 24.0845 22.6563 24.0845H22.7987C23.0835 24.0845 23.2258 23.9409 23.3682 23.7998C23.5106 23.515 23.3682 23.0879 23.0835 22.3759L21.9444 20.5249L23.7954 19.3858C24.5073 18.9587 24.7921 18.6746 24.7921 18.2468C24.7921 17.962 24.6497 17.8196 24.5073 17.6772C24.3649 17.5336 24.0801 17.3925 23.9378 17.3925C23.653 17.2501 23.653 17.2501 23.5106 16.9653C23.3682 16.6805 23.5106 16.5375 23.653 16.3958C23.9378 15.9686 24.6497 15.8262 24.9345 16.2534C25.0768 16.5375 25.0768 16.5375 25.0768 16.8229C25.0768 16.9659 25.0768 17.2501 25.0768 17.3925C25.0768 18.1044 25.7888 18.2468 26.9285 17.6772L28.7788 16.5375L29.9179 18.3885C30.0616 18.6726 30.2027 18.8157 30.2027 18.9581C30.0597 18.9581 30.0597 18.9581 29.9179 18.9581C29.4908 18.9581 29.0636 18.9581 28.6365 19.2428C28.0669 19.67 27.9245 20.3819 28.2087 20.9514C28.4928 21.8058 29.4908 22.3747 30.3432 21.9475C30.9127 21.6627 31.0551 21.378 31.1981 20.9514C31.1981 20.8084 31.1981 20.8084 31.3418 20.6673C31.4854 20.8097 31.4854 20.9514 31.6253 21.0945L32.765 22.9455L30.6318 24.3693ZM37.4662 14.6878C37.3239 14.6878 37.3239 14.6878 37.1821 14.6878C36.7543 14.6878 36.3272 14.6878 35.9 14.9725C35.3305 15.3997 35.1881 16.111 35.4728 16.6812C35.7563 17.5355 36.7543 18.105 37.6073 17.6779C38.1769 17.3931 38.3199 17.1083 38.4617 16.6812C38.4617 16.5381 38.4617 16.5381 38.6053 16.3964C38.749 16.5401 38.749 16.6812 38.8901 16.8242L40.0292 18.6752L38.1782 19.8136C37.4662 20.2408 37.1821 20.5256 37.1821 20.9534C37.1821 21.2375 37.3258 21.3805 37.4662 21.5229C37.6093 21.6653 37.8934 21.8077 38.0358 21.8077C38.3212 21.95 38.3212 21.95 38.4636 22.2348C38.6066 22.5189 38.4636 22.662 38.3212 22.8044C38.0358 23.2321 37.3251 23.3739 37.0384 22.948C36.8954 22.6632 36.8954 22.6632 36.8954 22.3785C36.8954 22.2355 36.8954 21.9513 36.8954 21.8089C36.8954 21.3818 36.6113 21.2394 36.1829 21.2394C35.8994 21.2394 35.6133 21.3818 35.0444 21.6665L33.1941 22.8056L32.055 20.9546C31.6265 20.2433 31.3431 19.9592 30.9159 19.9592C30.6311 19.9592 30.4881 20.1016 30.3464 20.2433C30.2033 20.3864 30.0622 20.6705 30.0622 20.8129C29.9186 21.0976 29.9186 21.0976 29.6351 21.24C29.2079 21.3824 28.7795 21.0976 28.639 20.6705C28.639 20.5268 28.4953 20.1009 28.7814 19.8149C28.9244 19.6725 29.0662 19.6725 29.2098 19.6725C29.3516 19.6725 29.3516 19.6725 29.4933 19.6725C29.6363 19.6725 29.9205 19.6725 30.0629 19.6725C30.347 19.6725 30.49 19.5301 30.6324 19.3878C30.7754 19.1036 30.7754 18.6758 30.3483 17.9639L29.2098 16.1142L31.0595 14.9745C31.3443 14.8314 31.488 14.6903 31.6291 14.6903C31.6291 14.8327 31.6291 14.8327 31.6291 14.9745C31.6291 15.2586 31.4873 15.6857 31.9145 16.2566C32.6258 17.1109 33.9079 16.9685 34.6198 15.9718C34.9039 15.5446 34.9039 15.1175 34.7628 14.5479C34.4787 13.9784 34.1933 13.8366 33.7674 13.6936C33.6238 13.6936 33.6238 13.6936 33.482 13.5512C33.6257 13.4089 33.7674 13.4089 33.9098 13.2665L35.7602 12.1274L36.8999 13.9784C37.3251 14.4036 37.4662 14.5454 37.4662 14.6878ZM26.931 7.56917C27.2145 7.42614 27.3582 7.2844 27.5006 7.2844C27.5006 7.42678 27.5006 7.42678 27.5006 7.56917C27.5006 7.8533 27.3575 8.28109 27.7847 8.85063C28.496 9.70494 29.7787 9.42017 30.49 8.5665C30.7741 8.13934 30.7741 7.71219 30.633 7.14265C30.3489 6.57311 30.0635 6.43072 29.6376 6.28834C29.494 6.28834 29.4939 6.28834 29.3522 6.14532C29.4959 6.00293 29.6376 6.00293 29.7806 5.86118L31.6304 4.72147L32.7707 6.57247C33.1979 7.2844 33.4814 7.56917 33.9092 7.56917C34.1939 7.56917 34.3369 7.42614 34.4787 7.2844C34.6224 7.14201 34.7635 6.85724 34.7635 6.71486C34.9065 6.43009 34.9065 6.43009 35.1906 6.2877C35.6178 6.14468 36.0462 6.43009 36.186 6.85724C36.186 6.99963 36.3297 7.42678 36.0443 7.71219C35.9006 7.85394 35.7589 7.85394 35.6159 7.85394C35.4735 7.85394 35.4735 7.85394 35.3317 7.85394C35.1887 7.85394 34.9046 7.85394 34.7622 7.85394C34.4774 7.85394 34.335 7.99696 34.1927 8.28173C34.0496 8.5665 34.1927 8.99365 34.4762 9.70494L35.6152 11.5559L33.7655 12.6957C33.0529 13.1228 32.7688 13.4069 32.7688 13.8341C32.7688 14.1189 32.9118 14.2613 33.0529 14.4036C33.1966 14.5467 33.4801 14.6884 33.6225 14.6884C33.906 14.8308 33.906 14.8308 34.0496 15.1156C34.1933 15.4003 34.0496 15.5427 33.906 15.6851C33.6225 16.1135 32.9106 16.2546 32.6239 15.8288C32.4821 15.5434 32.4821 15.5434 32.4821 15.258C32.4821 15.1149 32.4821 14.8302 32.4821 14.6884C32.4821 14.2613 32.1974 14.1189 31.7702 14.1189C31.4867 14.1189 31.2007 14.2619 30.6311 14.546L28.7801 15.6857L27.7847 13.55C27.641 13.2652 27.5006 13.1222 27.5006 12.9804C27.6429 12.9804 27.6429 12.9804 27.7847 12.9804C28.2119 12.9804 28.6396 12.9804 29.0668 12.6957C29.6363 12.2685 29.7787 11.5572 29.4939 10.987C29.2105 10.1327 28.2119 9.56319 27.3594 9.99035C26.7899 10.2751 26.6469 10.5599 26.5039 10.987C26.5039 11.1301 26.5039 11.1301 26.3615 11.2718C26.2191 11.1282 26.2191 10.9864 26.0773 10.844L24.9383 8.99301L26.931 7.56917ZM20.38 17.8209C20.2377 17.5361 20.0953 17.3937 20.0953 17.2513C20.2377 17.2513 20.2377 17.2513 20.38 17.2513C20.8072 17.3937 21.2344 17.2513 21.6615 16.9666C22.231 16.5388 22.3734 15.8275 22.0887 15.258C21.8039 14.4036 20.8072 13.8341 19.9529 14.2613C19.3834 14.5467 19.241 14.8308 19.0986 15.258C19.0986 15.401 19.0986 15.401 18.9562 15.5427C18.8138 15.4003 18.8138 15.258 18.6714 15.1156L17.5323 13.2646L19.3834 12.1255C20.0953 11.6983 20.38 11.4136 20.38 10.9864C20.38 10.7016 20.2377 10.5592 20.0953 10.4169C19.9529 10.2738 19.6681 10.1315 19.5257 10.1315C19.241 9.98971 19.241 9.98971 19.0986 9.7043C18.9562 9.42017 19.0986 9.27715 19.241 9.13476C19.5257 8.70761 20.2377 8.56522 20.5224 8.99238C20.6648 9.27651 20.6648 9.27651 20.6648 9.56192C20.6648 9.7043 20.6648 9.98971 20.6648 10.1315C20.8072 10.844 21.3767 10.9864 22.5158 10.4169L24.3668 9.27715L25.5059 11.1282C25.9331 11.8401 26.2172 12.1248 26.6443 12.1248C26.9298 12.1248 27.0715 11.9818 27.2139 11.8401C27.3569 11.6977 27.4987 11.4129 27.4987 11.2705C27.641 10.9858 27.641 10.9858 27.9258 10.8434C28.353 10.7004 28.7801 10.9858 28.9212 11.4129C28.9212 11.5553 29.0649 11.9825 28.7782 12.2679C28.6358 12.4103 28.4941 12.4103 28.3511 12.4103C28.208 12.4103 28.208 12.4103 28.0663 12.4103C27.9245 12.4103 27.6391 12.4103 27.4967 12.4103C27.212 12.4103 27.0683 12.5526 26.9272 12.695C26.7842 12.9792 26.7842 13.4063 27.2113 14.1182L28.3504 15.9692L26.3564 16.9659C26.0742 17.1083 25.9318 17.2507 25.7881 17.2507C25.7881 17.107 25.7881 17.107 25.7881 16.9659C25.7881 16.6812 25.9318 16.254 25.5046 15.6838C24.7914 14.8289 23.51 14.9725 22.7993 15.968C22.5145 16.3951 22.5145 16.8223 22.6569 17.3918C22.9417 17.9614 23.2265 18.1037 23.6536 18.2461C23.796 18.2461 23.796 18.2461 23.9384 18.3892C23.796 18.5322 23.6536 18.5322 23.5112 18.6733L21.6602 19.8124L20.38 17.8209Z" fill="#1E90FF"/>
</g>
<defs>
<clipPath id="clip0">
<rect width="50" height="50" fill="white"/>
</clipPath>
</defs>
</svg>
