<svg width="24" height="24" viewBox="0 0 24 24" fill="none" xmlns="http://www.w3.org/2000/svg">
<path d="M22 5.7962C21.2512 6.12823 20.4569 6.34609 19.6435 6.4425C20.5003 5.92984 21.1415 5.12313 21.4475 4.17272C20.6421 4.65108 19.7607 4.98784 18.8415 5.16838C18.2784 4.56862 17.5481 4.15191 16.7453 3.97231C15.9424 3.7927 15.1042 3.85848 14.3392 4.16112C13.5742 4.46376 12.9178 4.9893 12.4551 5.66955C11.9925 6.3498 11.7449 7.15338 11.7445 7.97606C11.7442 8.2908 11.7797 8.60456 11.8502 8.91129C10.2189 8.82954 8.62302 8.40566 7.16613 7.66715C5.70924 6.92865 4.42394 5.89204 3.39364 4.62461C2.86901 5.52786 2.70827 6.59707 2.94412 7.61465C3.17998 8.63223 3.7947 9.5217 4.6632 10.102C4.01159 10.0819 3.37428 9.90599 2.80454 9.58912V9.64097C2.80467 10.5883 3.13244 11.5064 3.73228 12.2396C4.33213 12.9728 5.1671 13.4759 6.09561 13.6637C5.74333 13.7598 5.37975 13.8082 5.01461 13.8075C4.75548 13.8075 4.49691 13.7834 4.24227 13.7353C4.50448 14.5503 5.01479 15.2631 5.70187 15.7739C6.38895 16.2847 7.21846 16.5681 8.07447 16.5844C6.35395 17.9316 4.16976 18.5423 2 18.2828C3.87582 19.4887 6.05923 20.129 8.28924 20.127C9.82516 20.1376 11.3479 19.8428 12.7689 19.2599C14.19 18.677 15.481 17.8176 16.5671 16.7315C17.6532 15.6454 18.5127 14.3543 19.0956 12.9333C19.6785 11.5122 19.9732 9.9895 19.9627 8.45358C19.9627 8.27558 19.9585 8.09868 19.9501 7.92289C20.7542 7.34128 21.4484 6.62115 22 5.7962Z" fill="white"/>
</svg>
