<svg width="50" height="50" viewBox="0 0 50 50" fill="none" xmlns="http://www.w3.org/2000/svg">
<path d="M25.6253 25.4582C26.737 24.496 27.6286 23.3058 28.2397 21.9686C28.8508 20.6314 29.167 19.1784 29.167 17.7082C29.167 14.9455 28.0695 12.296 26.116 10.3425C24.1625 8.38897 21.513 7.2915 18.7503 7.2915C15.9877 7.2915 13.3382 8.38897 11.3847 10.3425C9.43115 12.296 8.33368 14.9455 8.33368 17.7082C8.33366 19.1784 8.64993 20.6314 9.26102 21.9686C9.87212 23.3058 10.7637 24.496 11.8753 25.4582C8.95897 26.7788 6.48465 28.9114 4.74822 31.601C3.01179 34.2906 2.08675 37.4234 2.08368 40.6248C2.08368 41.1774 2.30317 41.7073 2.69387 42.098C3.08457 42.4887 3.61448 42.7082 4.16701 42.7082C4.71955 42.7082 5.24945 42.4887 5.64015 42.098C6.03085 41.7073 6.25035 41.1774 6.25035 40.6248C6.25035 37.3096 7.56731 34.1302 9.91151 31.786C12.2557 29.4418 15.4351 28.1248 18.7503 28.1248C22.0656 28.1248 25.245 29.4418 27.5892 31.786C29.9334 34.1302 31.2503 37.3096 31.2503 40.6248C31.2503 41.1774 31.4698 41.7073 31.8605 42.098C32.2512 42.4887 32.7811 42.7082 33.3337 42.7082C33.8862 42.7082 34.4161 42.4887 34.8068 42.098C35.1975 41.7073 35.417 41.1774 35.417 40.6248C35.4139 37.4234 34.4889 34.2906 32.7525 31.601C31.016 28.9114 28.5417 26.7788 25.6253 25.4582ZM18.7503 23.9582C17.5142 23.9582 16.3058 23.5916 15.278 22.9049C14.2502 22.2181 13.4491 21.242 12.9761 20.0999C12.5031 18.9579 12.3793 17.7012 12.6204 16.4889C12.8616 15.2765 13.4569 14.1628 14.3309 13.2888C15.205 12.4147 16.3187 11.8194 17.531 11.5783C18.7434 11.3371 20.0001 11.4609 21.1421 11.9339C22.2842 12.407 23.2603 13.2081 23.947 14.2359C24.6338 15.2637 25.0003 16.472 25.0003 17.7082C25.0003 19.3658 24.3419 20.9555 23.1698 22.1276C21.9977 23.2997 20.4079 23.9582 18.7503 23.9582ZM39.042 24.6248C40.3753 23.1234 41.2462 21.2687 41.5499 19.2839C41.8537 17.2991 41.5773 15.2687 40.754 13.4373C39.9308 11.6059 38.5958 10.0515 36.9097 8.96113C35.2236 7.87077 33.2583 7.29097 31.2503 7.2915C30.6978 7.2915 30.1679 7.511 29.7772 7.9017C29.3865 8.2924 29.167 8.8223 29.167 9.37484C29.167 9.92737 29.3865 10.4573 29.7772 10.848C30.1679 11.2387 30.6978 11.4582 31.2503 11.4582C32.908 11.4582 34.4977 12.1167 35.6698 13.2888C36.8419 14.4609 37.5003 16.0506 37.5003 17.7082C37.4974 18.8024 37.2072 19.8767 36.6588 20.8236C36.1104 21.7705 35.323 22.5569 34.3753 23.104C34.0665 23.2822 33.8085 23.5366 33.6261 23.843C33.4437 24.1495 33.343 24.4975 33.3337 24.854C33.325 25.2077 33.4065 25.5577 33.5705 25.8712C33.7345 26.1847 33.9756 26.4512 34.2712 26.6457L35.0837 27.1873L35.3545 27.3332C37.8658 28.5243 39.9843 30.4082 41.4607 32.763C42.9371 35.1178 43.7098 37.8455 43.6878 40.6248C43.6878 41.1774 43.9073 41.7073 44.298 42.098C44.6887 42.4887 45.2186 42.7082 45.7712 42.7082C46.3237 42.7082 46.8536 42.4887 47.2443 42.098C47.635 41.7073 47.8545 41.1774 47.8545 40.6248C47.8715 37.4278 47.0708 34.2795 45.5284 31.4791C43.986 28.6787 41.7532 26.3192 39.042 24.6248Z" fill="white"/>
</svg>
