<svg width="50" height="50" viewBox="0 0 50 50" fill="none" xmlns="http://www.w3.org/2000/svg">
<g clip-path="url(#clip0)">
<path d="M46.6972 15.7991C45.6273 14.7284 43.9264 14.6611 42.7762 15.5983C42.6099 15.7339 42.7387 15.6144 40.2062 18.1469L46.78 24.7209L49.1426 22.3878C50.2849 21.2455 50.2849 19.3869 49.1426 18.2445L46.6972 15.7991Z" fill="#1E90FF"/>
<path d="M26.723 31.7526L22.856 40.0392C22.5955 40.5975 22.712 41.2589 23.1476 41.6944C23.5831 42.1301 24.2448 42.2465 24.8028 41.986L33.0894 38.1189C33.4172 37.9659 32.4247 38.8948 44.6931 26.7797L38.1322 20.2188C25.9684 32.3827 26.879 31.4184 26.723 31.7526Z" fill="#1E90FF"/>
<path d="M35.5579 39.919C35.1991 40.2732 34.7857 40.5608 34.3289 40.774L26.0424 44.6411C24.4129 45.4016 22.4222 45.112 21.0768 43.7663C19.7749 42.4646 19.4233 40.4689 20.2018 38.8004L24.0689 30.5137C24.2861 30.0483 24.5804 29.6282 24.9436 29.2649L37.4013 16.8072V4.39453C37.4013 1.97139 35.4299 0 33.0068 0H4.39348C1.97033 0 -0.00105286 1.97139 -0.00105286 4.39453V45.6055C-0.00105286 48.0286 1.97033 50 4.39348 50H33.0068C35.4299 50 37.4013 48.0286 37.4013 45.6055V38.0985L35.5579 39.919ZM7.81155 9.47266H29.6865C30.4955 9.47266 31.1514 10.1285 31.1514 10.9375C31.1514 11.7465 30.4955 12.4023 29.6865 12.4023H7.81155C7.00256 12.4023 6.3467 11.7465 6.3467 10.9375C6.3467 10.1285 7.00256 9.47266 7.81155 9.47266ZM7.81155 17.2852H24.999C25.808 17.2852 26.4639 17.941 26.4639 18.75C26.4639 19.559 25.808 20.2148 24.999 20.2148H7.81155C7.00256 20.2148 6.3467 19.559 6.3467 18.75C6.3467 17.941 7.00256 17.2852 7.81155 17.2852ZM6.3467 26.5625C6.3467 25.7535 7.00256 25.0977 7.81155 25.0977H20.3115C21.1205 25.0977 21.7764 25.7535 21.7764 26.5625C21.7764 27.3715 21.1205 28.0273 20.3115 28.0273H7.81155C7.00256 28.0273 6.3467 27.3715 6.3467 26.5625Z" fill="#1E90FF"/>
</g>
<defs>
<clipPath id="clip0">
<rect width="50" height="50" fill="white"/>
</clipPath>
</defs>
</svg>
